<mxfile host="65bd71144e" pages="5">
    <diagram id="wxVybBp9iioMGYdmkTW1" name="Page-1">
        <mxGraphModel dx="1416" dy="1984" grid="1" gridSize="10" guides="1" tooltips="1" connect="1" arrows="1" fold="1" page="1" pageScale="1" pageWidth="850" pageHeight="1100" math="0" shadow="0">
            <root>
                <mxCell id="0"/>
                <mxCell id="1" parent="0"/>
                <mxCell id="7J_r2SXEMv--OUWh8xWr-231" value="" style="group;fillColor=none;" parent="1" vertex="1" connectable="0">
                    <mxGeometry x="94.99999999999997" y="-655" width="320" height="145" as="geometry"/>
                </mxCell>
                <mxCell id="7J_r2SXEMv--OUWh8xWr-192" value="Think" style="whiteSpace=wrap;html=1;verticalAlign=top;fontSize=15;fontStyle=1;" parent="7J_r2SXEMv--OUWh8xWr-231" vertex="1">
                    <mxGeometry width="320" height="145" as="geometry"/>
                </mxCell>
                <mxCell id="7J_r2SXEMv--OUWh8xWr-198" value="Interrupt schedule for avoidance" style="whiteSpace=wrap;html=1;absoluteArcSize=1;arcSize=14;strokeWidth=2;fontSize=15;verticalAlign=middle;" parent="7J_r2SXEMv--OUWh8xWr-231" vertex="1">
                    <mxGeometry x="170" y="40" width="140" height="60" as="geometry"/>
                </mxCell>
                <mxCell id="7J_r2SXEMv--OUWh8xWr-199" style="edgeStyle=orthogonalEdgeStyle;orthogonalLoop=1;jettySize=auto;html=1;entryX=0;entryY=0.5;entryDx=0;entryDy=0;fontSize=15;startArrow=none;startFill=0;strokeWidth=3;" parent="7J_r2SXEMv--OUWh8xWr-231" source="7J_r2SXEMv--OUWh8xWr-196" target="7J_r2SXEMv--OUWh8xWr-198" edge="1">
                    <mxGeometry relative="1" as="geometry"/>
                </mxCell>
                <mxCell id="7J_r2SXEMv--OUWh8xWr-200" value="Yes" style="edgeLabel;html=1;align=center;verticalAlign=middle;resizable=0;points=[];fontSize=15;" parent="7J_r2SXEMv--OUWh8xWr-199" vertex="1" connectable="0">
                    <mxGeometry x="-0.0219" y="-6" relative="1" as="geometry">
                        <mxPoint x="-12" y="-21" as="offset"/>
                    </mxGeometry>
                </mxCell>
                <mxCell id="7J_r2SXEMv--OUWh8xWr-196" value="Obstacle Detected?" style="strokeWidth=2;html=1;shape=mxgraph.flowchart.decision;whiteSpace=wrap;fontSize=15;verticalAlign=middle;" parent="7J_r2SXEMv--OUWh8xWr-231" vertex="1">
                    <mxGeometry x="16" y="20" width="100" height="100" as="geometry"/>
                </mxCell>
                <mxCell id="7J_r2SXEMv--OUWh8xWr-194" value="loop()" style="strokeWidth=2;html=1;shape=mxgraph.flowchart.start_1;whiteSpace=wrap;fontSize=15;verticalAlign=middle;" parent="1" vertex="1">
                    <mxGeometry x="204.99999999999997" y="-895" width="100" height="60" as="geometry"/>
                </mxCell>
                <mxCell id="7J_r2SXEMv--OUWh8xWr-207" style="edgeStyle=orthogonalEdgeStyle;orthogonalLoop=1;jettySize=auto;html=1;fontSize=15;startArrow=none;startFill=0;strokeWidth=3;" parent="1" source="7J_r2SXEMv--OUWh8xWr-198" target="7J_r2SXEMv--OUWh8xWr-205" edge="1">
                    <mxGeometry relative="1" as="geometry">
                        <Array as="points">
                            <mxPoint x="335" y="-525"/>
                            <mxPoint x="230" y="-525"/>
                        </Array>
                    </mxGeometry>
                </mxCell>
                <mxCell id="7J_r2SXEMv--OUWh8xWr-233" value="" style="group;fillColor=none;" parent="1" vertex="1" connectable="0">
                    <mxGeometry x="94.99999999999997" y="-815" width="320" height="140" as="geometry"/>
                </mxCell>
                <mxCell id="7J_r2SXEMv--OUWh8xWr-184" value="Sense" style="whiteSpace=wrap;html=1;verticalAlign=top;fontSize=15;fontStyle=1;" parent="7J_r2SXEMv--OUWh8xWr-233" vertex="1">
                    <mxGeometry y="10" width="320" height="130" as="geometry"/>
                </mxCell>
                <mxCell id="7J_r2SXEMv--OUWh8xWr-186" value="Poll sensors" style="whiteSpace=wrap;html=1;absoluteArcSize=1;arcSize=14;strokeWidth=2;fontSize=15;verticalAlign=middle;" parent="7J_r2SXEMv--OUWh8xWr-233" vertex="1">
                    <mxGeometry x="16" y="55" width="100" height="40" as="geometry"/>
                </mxCell>
                <mxCell id="7J_r2SXEMv--OUWh8xWr-191" value="" style="group;" parent="7J_r2SXEMv--OUWh8xWr-233" vertex="1" connectable="0">
                    <mxGeometry x="150" y="40" width="120" height="70" as="geometry"/>
                </mxCell>
                <mxCell id="7J_r2SXEMv--OUWh8xWr-187" value="Update odometry" style="whiteSpace=wrap;html=1;absoluteArcSize=1;arcSize=14;strokeWidth=2;fontSize=15;verticalAlign=middle;" parent="7J_r2SXEMv--OUWh8xWr-191" vertex="1">
                    <mxGeometry y="20" width="100" height="40" as="geometry"/>
                </mxCell>
                <mxCell id="7J_r2SXEMv--OUWh8xWr-189" style="edgeStyle=orthogonalEdgeStyle;orthogonalLoop=1;jettySize=auto;html=1;entryX=0.5;entryY=0;entryDx=0;entryDy=0;fontSize=15;startArrow=none;startFill=0;strokeWidth=3;" parent="7J_r2SXEMv--OUWh8xWr-191" target="7J_r2SXEMv--OUWh8xWr-187" edge="1">
                    <mxGeometry relative="1" as="geometry">
                        <mxPoint x="50" y="60" as="sourcePoint"/>
                        <Array as="points">
                            <mxPoint x="50" y="70"/>
                            <mxPoint x="140" y="70"/>
                            <mxPoint x="140"/>
                            <mxPoint x="50"/>
                        </Array>
                    </mxGeometry>
                </mxCell>
                <mxCell id="7J_r2SXEMv--OUWh8xWr-190" value="Timer&lt;br&gt;Interrupt" style="edgeLabel;html=1;align=center;verticalAlign=middle;resizable=0;points=[];fontSize=15;labelBackgroundColor=#ffffff;" parent="7J_r2SXEMv--OUWh8xWr-189" vertex="1" connectable="0">
                    <mxGeometry x="0.0136" y="-2" relative="1" as="geometry">
                        <mxPoint x="-2" y="12" as="offset"/>
                    </mxGeometry>
                </mxCell>
                <mxCell id="7J_r2SXEMv--OUWh8xWr-195" style="edgeStyle=orthogonalEdgeStyle;orthogonalLoop=1;jettySize=auto;html=1;entryX=0.5;entryY=0;entryDx=0;entryDy=0;fontSize=15;startArrow=none;startFill=0;strokeWidth=3;exitX=0.5;exitY=1;exitDx=0;exitDy=0;exitPerimeter=0;" parent="7J_r2SXEMv--OUWh8xWr-233" source="7J_r2SXEMv--OUWh8xWr-194" target="7J_r2SXEMv--OUWh8xWr-186" edge="1">
                    <mxGeometry relative="1" as="geometry">
                        <Array as="points">
                            <mxPoint x="160"/>
                            <mxPoint x="66"/>
                        </Array>
                    </mxGeometry>
                </mxCell>
                <mxCell id="7J_r2SXEMv--OUWh8xWr-197" style="edgeStyle=orthogonalEdgeStyle;orthogonalLoop=1;jettySize=auto;html=1;fontSize=15;startArrow=none;startFill=0;strokeWidth=3;entryX=0.5;entryY=0;entryDx=0;entryDy=0;entryPerimeter=0;" parent="1" source="7J_r2SXEMv--OUWh8xWr-186" target="7J_r2SXEMv--OUWh8xWr-196" edge="1">
                    <mxGeometry relative="1" as="geometry">
                        <mxPoint x="175" y="-645" as="targetPoint"/>
                    </mxGeometry>
                </mxCell>
                <mxCell id="7J_r2SXEMv--OUWh8xWr-234" value="" style="group;fillColor=none;" parent="1" vertex="1" connectable="0">
                    <mxGeometry x="94.99999999999997" y="-490" width="320" height="285" as="geometry"/>
                </mxCell>
                <mxCell id="7J_r2SXEMv--OUWh8xWr-193" value="Act" style="whiteSpace=wrap;html=1;verticalAlign=top;fontSize=15;fontStyle=1;" parent="7J_r2SXEMv--OUWh8xWr-234" vertex="1">
                    <mxGeometry width="320" height="285" as="geometry"/>
                </mxCell>
                <mxCell id="7J_r2SXEMv--OUWh8xWr-232" value="" style="group;" parent="7J_r2SXEMv--OUWh8xWr-234" vertex="1" connectable="0">
                    <mxGeometry x="10" y="28.965517241379313" width="300" height="231.7241379310345" as="geometry"/>
                </mxCell>
                <mxCell id="7J_r2SXEMv--OUWh8xWr-218" value="" style="group;" parent="7J_r2SXEMv--OUWh8xWr-232" vertex="1" connectable="0">
                    <mxGeometry width="300" height="125.51724137931035" as="geometry"/>
                </mxCell>
                <mxCell id="7J_r2SXEMv--OUWh8xWr-223" style="edgeStyle=orthogonalEdgeStyle;orthogonalLoop=1;jettySize=auto;html=1;entryX=0.5;entryY=0;entryDx=0;entryDy=0;entryPerimeter=0;fontSize=15;startArrow=none;startFill=0;strokeWidth=3;exitX=0.5;exitY=1;exitDx=0;exitDy=0;" parent="7J_r2SXEMv--OUWh8xWr-218" source="7J_r2SXEMv--OUWh8xWr-205" target="7J_r2SXEMv--OUWh8xWr-221" edge="1">
                    <mxGeometry relative="1" as="geometry">
                        <Array as="points">
                            <mxPoint x="150" y="135.17241379310346"/>
                            <mxPoint x="64" y="135.17241379310346"/>
                        </Array>
                    </mxGeometry>
                </mxCell>
                <mxCell id="7J_r2SXEMv--OUWh8xWr-205" value="Scheduler::periodic()" style="whiteSpace=wrap;html=1;verticalAlign=top;fontSize=15;fontStyle=1;" parent="7J_r2SXEMv--OUWh8xWr-218" vertex="1">
                    <mxGeometry width="300" height="125.51724137931035" as="geometry"/>
                </mxCell>
                <mxCell id="7J_r2SXEMv--OUWh8xWr-204" value="Is there an interrupt?" style="strokeWidth=2;html=1;shape=mxgraph.flowchart.decision;whiteSpace=wrap;fontSize=15;verticalAlign=middle;" parent="7J_r2SXEMv--OUWh8xWr-218" vertex="1">
                    <mxGeometry x="10.714285714285714" y="22.20689655172414" width="107.14285714285714" height="88.82758620689656" as="geometry"/>
                </mxCell>
                <mxCell id="7J_r2SXEMv--OUWh8xWr-209" value="Run Interrupt" style="whiteSpace=wrap;html=1;absoluteArcSize=1;arcSize=14;strokeWidth=2;fontSize=15;verticalAlign=middle;" parent="7J_r2SXEMv--OUWh8xWr-218" vertex="1">
                    <mxGeometry x="182.14285714285714" y="55.03448275862069" width="107.14285714285714" height="23.17241379310345" as="geometry"/>
                </mxCell>
                <mxCell id="7J_r2SXEMv--OUWh8xWr-203" value="Continue Schedule" style="whiteSpace=wrap;html=1;absoluteArcSize=1;arcSize=14;strokeWidth=2;fontSize=15;verticalAlign=middle;" parent="7J_r2SXEMv--OUWh8xWr-218" vertex="1">
                    <mxGeometry x="150" y="86.89655172413794" width="139.28571428571428" height="24.137931034482758" as="geometry"/>
                </mxCell>
                <mxCell id="7J_r2SXEMv--OUWh8xWr-211" style="edgeStyle=orthogonalEdgeStyle;orthogonalLoop=1;jettySize=auto;html=1;fontSize=15;startArrow=none;startFill=0;strokeWidth=3;" parent="7J_r2SXEMv--OUWh8xWr-218" source="7J_r2SXEMv--OUWh8xWr-204" target="7J_r2SXEMv--OUWh8xWr-203" edge="1">
                    <mxGeometry as="geometry">
                        <Array as="points">
                            <mxPoint x="128.57142857142856" y="66.62068965517241"/>
                            <mxPoint x="128.57142857142856" y="99.44827586206897"/>
                        </Array>
                    </mxGeometry>
                </mxCell>
                <mxCell id="7J_r2SXEMv--OUWh8xWr-213" value="No" style="edgeLabel;html=1;align=center;verticalAlign=middle;resizable=0;points=[];fontSize=15;" parent="7J_r2SXEMv--OUWh8xWr-211" vertex="1" connectable="0">
                    <mxGeometry x="0.1146" y="1" relative="1" as="geometry">
                        <mxPoint x="-21" y="8" as="offset"/>
                    </mxGeometry>
                </mxCell>
                <mxCell id="7J_r2SXEMv--OUWh8xWr-210" style="edgeStyle=orthogonalEdgeStyle;orthogonalLoop=1;jettySize=auto;html=1;entryX=0;entryY=0.5;entryDx=0;entryDy=0;fontSize=15;startArrow=none;startFill=0;strokeWidth=3;exitX=1;exitY=0.5;exitDx=0;exitDy=0;exitPerimeter=0;" parent="7J_r2SXEMv--OUWh8xWr-218" source="7J_r2SXEMv--OUWh8xWr-204" target="7J_r2SXEMv--OUWh8xWr-209" edge="1">
                    <mxGeometry as="geometry"/>
                </mxCell>
                <mxCell id="7J_r2SXEMv--OUWh8xWr-212" value="Yes" style="edgeLabel;html=1;align=center;verticalAlign=middle;resizable=0;points=[];fontSize=15;" parent="7J_r2SXEMv--OUWh8xWr-210" vertex="1" connectable="0">
                    <mxGeometry x="0.2778" relative="1" as="geometry">
                        <mxPoint x="-8" y="-12" as="offset"/>
                    </mxGeometry>
                </mxCell>
                <mxCell id="7J_r2SXEMv--OUWh8xWr-221" value="Is schedule complete?" style="strokeWidth=2;html=1;shape=mxgraph.flowchart.decision;whiteSpace=wrap;fontSize=15;verticalAlign=middle;" parent="7J_r2SXEMv--OUWh8xWr-218" vertex="1">
                    <mxGeometry x="4.2900000000000205" y="154.48275862068965" width="120" height="86.89655172413794" as="geometry"/>
                </mxCell>
                <mxCell id="7J_r2SXEMv--OUWh8xWr-227" value="Stop" style="strokeWidth=2;html=1;shape=mxgraph.flowchart.terminator;whiteSpace=wrap;fontSize=15;verticalAlign=middle;" parent="7J_r2SXEMv--OUWh8xWr-232" vertex="1">
                    <mxGeometry x="190.00225806451613" y="178.6206896551724" width="61.935483870967744" height="38.62068965517241" as="geometry"/>
                </mxCell>
                <mxCell id="7J_r2SXEMv--OUWh8xWr-228" style="edgeStyle=orthogonalEdgeStyle;orthogonalLoop=1;jettySize=auto;html=1;entryX=0;entryY=0.5;entryDx=0;entryDy=0;entryPerimeter=0;fontSize=15;startArrow=none;startFill=0;strokeWidth=3;" parent="7J_r2SXEMv--OUWh8xWr-232" source="7J_r2SXEMv--OUWh8xWr-221" target="7J_r2SXEMv--OUWh8xWr-227" edge="1">
                    <mxGeometry relative="1" as="geometry">
                        <Array as="points">
                            <mxPoint x="180" y="197.93103448275863"/>
                            <mxPoint x="180" y="197.93103448275863"/>
                        </Array>
                    </mxGeometry>
                </mxCell>
                <mxCell id="7J_r2SXEMv--OUWh8xWr-230" value="Yes" style="edgeLabel;html=1;align=center;verticalAlign=middle;resizable=0;points=[];fontSize=15;" parent="7J_r2SXEMv--OUWh8xWr-228" vertex="1" connectable="0">
                    <mxGeometry x="-0.1871" y="-1" relative="1" as="geometry">
                        <mxPoint x="-1" y="-16" as="offset"/>
                    </mxGeometry>
                </mxCell>
                <mxCell id="7J_r2SXEMv--OUWh8xWr-229" style="edgeStyle=orthogonalEdgeStyle;orthogonalLoop=1;jettySize=auto;html=1;fontSize=15;startArrow=none;startFill=0;strokeWidth=3;entryX=0.5;entryY=0;entryDx=0;entryDy=0;entryPerimeter=0;" parent="7J_r2SXEMv--OUWh8xWr-232" target="7J_r2SXEMv--OUWh8xWr-227" edge="1">
                    <mxGeometry relative="1" as="geometry">
                        <mxPoint x="221" y="217.24137931034483" as="sourcePoint"/>
                        <Array as="points">
                            <mxPoint x="221" y="231.7241379310345"/>
                            <mxPoint x="262" y="231.7241379310345"/>
                            <mxPoint x="262" y="159.31034482758622"/>
                            <mxPoint x="221" y="159.31034482758622"/>
                        </Array>
                    </mxGeometry>
                </mxCell>
                <mxCell id="7J_r2SXEMv--OUWh8xWr-206" style="edgeStyle=orthogonalEdgeStyle;orthogonalLoop=1;jettySize=auto;html=1;fontSize=15;startArrow=none;startFill=0;strokeWidth=3;" parent="1" source="7J_r2SXEMv--OUWh8xWr-196" target="7J_r2SXEMv--OUWh8xWr-205" edge="1">
                    <mxGeometry relative="1" as="geometry">
                        <Array as="points">
                            <mxPoint x="161" y="-525"/>
                            <mxPoint x="230" y="-525"/>
                        </Array>
                    </mxGeometry>
                </mxCell>
                <mxCell id="7J_r2SXEMv--OUWh8xWr-208" value="No" style="edgeLabel;html=1;align=center;verticalAlign=middle;resizable=0;points=[];fontSize=15;" parent="7J_r2SXEMv--OUWh8xWr-206" vertex="1" connectable="0">
                    <mxGeometry x="-0.6673" relative="1" as="geometry">
                        <mxPoint x="27" y="-15" as="offset"/>
                    </mxGeometry>
                </mxCell>
                <mxCell id="-iYDh0l8v9Food09oiuS-1" value="return" style="strokeWidth=2;html=1;shape=mxgraph.flowchart.terminator;whiteSpace=wrap;fontSize=15;verticalAlign=middle;" parent="1" vertex="1">
                    <mxGeometry x="224.0322580645161" y="-180" width="61.935483870967744" height="39.99999999999999" as="geometry"/>
                </mxCell>
                <mxCell id="-iYDh0l8v9Food09oiuS-2" style="edgeStyle=orthogonalEdgeStyle;orthogonalLoop=1;jettySize=auto;html=1;entryX=0.5;entryY=0;entryDx=0;entryDy=0;entryPerimeter=0;fontSize=15;startArrow=none;startFill=0;strokeWidth=3;" parent="1" source="7J_r2SXEMv--OUWh8xWr-221" target="-iYDh0l8v9Food09oiuS-1" edge="1">
                    <mxGeometry relative="1" as="geometry"/>
                </mxCell>
                <mxCell id="-iYDh0l8v9Food09oiuS-3" value="No" style="edgeLabel;html=1;align=center;verticalAlign=middle;resizable=0;points=[];fontSize=15;" parent="-iYDh0l8v9Food09oiuS-2" vertex="1" connectable="0">
                    <mxGeometry x="-0.3514" relative="1" as="geometry">
                        <mxPoint x="-10" y="10" as="offset"/>
                    </mxGeometry>
                </mxCell>
                <mxCell id="mrsGRL1g0M8LuD2HtruE-7" value="Scheduled Navigation Sequence" style="whiteSpace=wrap;html=1;verticalAlign=top;fontSize=15;fontStyle=1;" parent="1" vertex="1">
                    <mxGeometry x="435" y="-805" width="320" height="600" as="geometry"/>
                </mxCell>
                <mxCell id="mrsGRL1g0M8LuD2HtruE-8" value="Drive heading to arrive at (0,300)&lt;br&gt;&lt;div style=&quot;color: rgb(67 , 79 , 84) ; background-color: rgb(255 , 255 , 255) ; font-family: &amp;#34;consolas&amp;#34; , &amp;#34;courier new&amp;#34; , monospace ; font-size: 14px ; line-height: 19px&quot;&gt;&lt;span style=&quot;color: #d35400&quot;&gt;DriveToPositionCommand&lt;/span&gt;&lt;/div&gt;&lt;div style=&quot;color: rgb(67 , 79 , 84) ; background-color: rgb(255 , 255 , 255) ; font-family: &amp;#34;consolas&amp;#34; , &amp;#34;courier new&amp;#34; , monospace ; font-size: 14px ; line-height: 19px&quot;&gt;(0,&amp;nbsp;300,&amp;nbsp;220,&amp;nbsp;20,&amp;nbsp;&amp;amp;pid1,&amp;nbsp;&amp;amp;path)&lt;/div&gt;" style="whiteSpace=wrap;html=1;absoluteArcSize=1;arcSize=14;strokeWidth=2;fontSize=15;verticalAlign=top;" parent="1" vertex="1">
                    <mxGeometry x="465.9677419354839" y="-685" width="258.06451612903226" height="69.99999999999999" as="geometry"/>
                </mxCell>
                <mxCell id="mrsGRL1g0M8LuD2HtruE-9" value="Run search pattern to find marker&lt;br&gt;&lt;div style=&quot;color: rgb(67 , 79 , 84) ; background-color: rgb(255 , 255 , 255) ; font-family: &amp;#34;consolas&amp;#34; , &amp;#34;courier new&amp;#34; , monospace ; font-size: 14px ; line-height: 19px&quot;&gt;&lt;span style=&quot;color: #d35400&quot;&gt;SearchCommand&lt;/span&gt;&lt;/div&gt;&lt;div style=&quot;color: rgb(67 , 79 , 84) ; background-color: rgb(255 , 255 , 255) ; font-family: &amp;#34;consolas&amp;#34; , &amp;#34;courier new&amp;#34; , monospace ; font-size: 14px ; line-height: 19px&quot;&gt;(150,&amp;nbsp;0,&amp;nbsp;30,&amp;nbsp;20,&amp;nbsp;&amp;amp;pid1,&amp;nbsp;&amp;amp;pid2)&lt;/div&gt;" style="whiteSpace=wrap;html=1;absoluteArcSize=1;arcSize=14;strokeWidth=2;fontSize=15;verticalAlign=top;" parent="1" vertex="1">
                    <mxGeometry x="465.9677419354839" y="-582" width="258.06451612903226" height="69.99999999999999" as="geometry"/>
                </mxCell>
                <mxCell id="mrsGRL1g0M8LuD2HtruE-10" value="Travel along calculated path&lt;br&gt;&lt;div style=&quot;color: rgb(67 , 79 , 84) ; background-color: rgb(255 , 255 , 255) ; font-family: &amp;#34;consolas&amp;#34; , &amp;#34;courier new&amp;#34; , monospace ; font-size: 14px ; line-height: 19px&quot;&gt;&lt;div style=&quot;font-family: &amp;#34;consolas&amp;#34; , &amp;#34;courier new&amp;#34; , monospace ; line-height: 19px&quot;&gt;&lt;span style=&quot;color: #d35400&quot;&gt;DrivePathCommand&lt;/span&gt;&lt;/div&gt;&lt;div style=&quot;font-family: &amp;#34;consolas&amp;#34; , &amp;#34;courier new&amp;#34; , monospace ; line-height: 19px&quot;&gt;(&amp;amp;retPath,&amp;nbsp;false,&amp;nbsp;200,&amp;nbsp;15,&amp;nbsp;&amp;amp;pid1)&lt;/div&gt;&lt;/div&gt;" style="whiteSpace=wrap;html=1;absoluteArcSize=1;arcSize=14;strokeWidth=2;fontSize=15;verticalAlign=top;" parent="1" vertex="1">
                    <mxGeometry x="465.9677419354839" y="-375.00000000000006" width="258.06451612903226" height="69.99999999999999" as="geometry"/>
                </mxCell>
                <mxCell id="mrsGRL1g0M8LuD2HtruE-12" value="Stop" style="strokeWidth=2;html=1;shape=mxgraph.flowchart.terminator;whiteSpace=wrap;fontSize=15;verticalAlign=middle;" parent="1" vertex="1">
                    <mxGeometry x="564.0322580645161" y="-265" width="61.935483870967744" height="39.99999999999999" as="geometry"/>
                </mxCell>
                <mxCell id="mrsGRL1g0M8LuD2HtruE-21" value="Start" style="strokeWidth=2;html=1;shape=mxgraph.flowchart.start_1;whiteSpace=wrap;fontSize=15;verticalAlign=middle;" parent="1" vertex="1">
                    <mxGeometry x="543.3870967741935" y="-765" width="103.2258064516129" height="60" as="geometry"/>
                </mxCell>
                <mxCell id="mrsGRL1g0M8LuD2HtruE-13" style="edgeStyle=orthogonalEdgeStyle;orthogonalLoop=1;jettySize=auto;html=1;fontSize=15;strokeWidth=3;" parent="1" source="mrsGRL1g0M8LuD2HtruE-8" target="mrsGRL1g0M8LuD2HtruE-9" edge="1">
                    <mxGeometry x="497.9677419354839" y="-727" as="geometry"/>
                </mxCell>
                <mxCell id="mrsGRL1g0M8LuD2HtruE-17" value="Arrive at (0,300)" style="edgeLabel;html=1;align=center;verticalAlign=middle;resizable=0;points=[];fontSize=15;labelBackgroundColor=#ffffff;" parent="mrsGRL1g0M8LuD2HtruE-13" vertex="1" connectable="0">
                    <mxGeometry x="0.2174" y="-1" relative="1" as="geometry">
                        <mxPoint as="offset"/>
                    </mxGeometry>
                </mxCell>
                <mxCell id="mrsGRL1g0M8LuD2HtruE-14" style="edgeStyle=orthogonalEdgeStyle;orthogonalLoop=1;jettySize=auto;html=1;fontSize=15;strokeWidth=3;" parent="1" source="mrsGRL1g0M8LuD2HtruE-9" target="vikp4Lg_yxEDGK3q8YTu-1" edge="1">
                    <mxGeometry x="497.9677419354839" y="-727" as="geometry"/>
                </mxCell>
                <mxCell id="mrsGRL1g0M8LuD2HtruE-18" value="Find ground marker" style="edgeLabel;html=1;align=center;verticalAlign=middle;resizable=0;points=[];fontSize=15;labelBackgroundColor=#ffffff;" parent="mrsGRL1g0M8LuD2HtruE-14" vertex="1" connectable="0">
                    <mxGeometry x="0.011" y="-1" relative="1" as="geometry">
                        <mxPoint as="offset"/>
                    </mxGeometry>
                </mxCell>
                <mxCell id="mrsGRL1g0M8LuD2HtruE-15" style="edgeStyle=orthogonalEdgeStyle;orthogonalLoop=1;jettySize=auto;html=1;fontSize=15;strokeWidth=3;" parent="1" source="mrsGRL1g0M8LuD2HtruE-10" target="mrsGRL1g0M8LuD2HtruE-12" edge="1">
                    <mxGeometry x="497.9677419354839" y="-727" as="geometry"/>
                </mxCell>
                <mxCell id="mrsGRL1g0M8LuD2HtruE-19" value="Arrive at origin" style="edgeLabel;html=1;align=center;verticalAlign=middle;resizable=0;points=[];fontSize=15;labelBackgroundColor=#ffffff;" parent="mrsGRL1g0M8LuD2HtruE-15" vertex="1" connectable="0">
                    <mxGeometry x="0.2523" y="1" relative="1" as="geometry">
                        <mxPoint y="-10" as="offset"/>
                    </mxGeometry>
                </mxCell>
                <mxCell id="mrsGRL1g0M8LuD2HtruE-22" style="edgeStyle=orthogonalEdgeStyle;orthogonalLoop=1;jettySize=auto;html=1;fontSize=15;strokeWidth=3;" parent="1" source="mrsGRL1g0M8LuD2HtruE-21" target="mrsGRL1g0M8LuD2HtruE-8" edge="1">
                    <mxGeometry x="435" y="-805" as="geometry"/>
                </mxCell>
                <mxCell id="vikp4Lg_yxEDGK3q8YTu-3" style="edgeStyle=orthogonalEdgeStyle;rounded=0;orthogonalLoop=1;jettySize=auto;html=1;strokeWidth=3;" edge="1" parent="1" source="vikp4Lg_yxEDGK3q8YTu-1" target="mrsGRL1g0M8LuD2HtruE-10">
                    <mxGeometry x="435" y="-805" as="geometry"/>
                </mxCell>
                <mxCell id="vikp4Lg_yxEDGK3q8YTu-1" value="Compute better return path&lt;br&gt;&lt;div style=&quot;color: rgb(67 , 79 , 84) ; background-color: rgb(255 , 255 , 255) ; font-family: &amp;#34;consolas&amp;#34; , &amp;#34;courier new&amp;#34; , monospace ; font-size: 14px ; line-height: 19px&quot;&gt;&lt;span style=&quot;color: #d35400&quot;&gt;ComputePathCommand&lt;/span&gt;&lt;/div&gt;&lt;div style=&quot;color: rgb(67 , 79 , 84) ; background-color: rgb(255 , 255 , 255) ; font-family: &amp;#34;consolas&amp;#34; , &amp;#34;courier new&amp;#34; , monospace ; font-size: 14px ; line-height: 19px&quot;&gt;(&amp;amp;path,&amp;nbsp;&amp;amp;retPath)&lt;/div&gt;" style="whiteSpace=wrap;html=1;absoluteArcSize=1;arcSize=14;strokeWidth=2;fontSize=15;verticalAlign=top;" vertex="1" parent="1">
                    <mxGeometry x="465.9677419354839" y="-478" width="258.06451612903226" height="69.99999999999999" as="geometry"/>
                </mxCell>
            </root>
        </mxGraphModel>
    </diagram>
    <diagram id="wqGhKOWdf6Fn-2Qov315" name="Page-5">
        <mxGraphModel dx="1204" dy="751" grid="1" gridSize="10" guides="1" tooltips="1" connect="1" arrows="1" fold="1" page="1" pageScale="1" pageWidth="850" pageHeight="1100" math="0" shadow="0">
            <root>
                <mxCell id="w6tPkV__amYRiSDFf9xx-0"/>
                <mxCell id="w6tPkV__amYRiSDFf9xx-1" parent="w6tPkV__amYRiSDFf9xx-0"/>
                <mxCell id="ErXvT_Iq7-1203h138Nt-64" value="Scheduler::periodic()" style="whiteSpace=wrap;html=1;verticalAlign=top;fontSize=15;fontStyle=1;" parent="w6tPkV__amYRiSDFf9xx-1" vertex="1">
                    <mxGeometry x="69" y="320" width="780" height="370" as="geometry"/>
                </mxCell>
                <mxCell id="ErXvT_Iq7-1203h138Nt-67" style="edgeStyle=orthogonalEdgeStyle;rounded=0;orthogonalLoop=1;jettySize=auto;html=1;entryX=0;entryY=0.5;entryDx=0;entryDy=0;fontSize=15;startArrow=none;startFill=0;strokeWidth=3;exitX=1;exitY=0.5;exitDx=0;exitDy=0;exitPerimeter=0;" parent="w6tPkV__amYRiSDFf9xx-1" source="ErXvT_Iq7-1203h138Nt-65" target="ErXvT_Iq7-1203h138Nt-66" edge="1">
                    <mxGeometry relative="1" as="geometry">
                        <Array as="points"/>
                    </mxGeometry>
                </mxCell>
                <mxCell id="ErXvT_Iq7-1203h138Nt-68" value="Yes" style="edgeLabel;html=1;align=center;verticalAlign=middle;resizable=0;points=[];fontSize=15;" parent="ErXvT_Iq7-1203h138Nt-67" vertex="1" connectable="0">
                    <mxGeometry x="0.7031" y="-5" relative="1" as="geometry">
                        <mxPoint x="-28" y="25" as="offset"/>
                    </mxGeometry>
                </mxCell>
                <mxCell id="ErXvT_Iq7-1203h138Nt-76" style="edgeStyle=orthogonalEdgeStyle;rounded=0;orthogonalLoop=1;jettySize=auto;html=1;fontSize=15;startArrow=none;startFill=0;strokeWidth=3;" parent="w6tPkV__amYRiSDFf9xx-1" source="ErXvT_Iq7-1203h138Nt-72" target="ErXvT_Iq7-1203h138Nt-75" edge="1">
                    <mxGeometry relative="1" as="geometry"/>
                </mxCell>
                <mxCell id="Be76M1x_A2nLHFn4Trk8-4" style="edgeStyle=orthogonalEdgeStyle;rounded=0;orthogonalLoop=1;jettySize=auto;html=1;entryX=0;entryY=0.5;entryDx=0;entryDy=0;fontSize=15;startArrow=none;startFill=0;strokeWidth=3;" parent="w6tPkV__amYRiSDFf9xx-1" source="Be76M1x_A2nLHFn4Trk8-3" target="ErXvT_Iq7-1203h138Nt-69" edge="1">
                    <mxGeometry relative="1" as="geometry"/>
                </mxCell>
                <mxCell id="Be76M1x_A2nLHFn4Trk8-6" value="Yes" style="edgeLabel;html=1;align=center;verticalAlign=middle;resizable=0;points=[];fontSize=15;" parent="Be76M1x_A2nLHFn4Trk8-4" vertex="1" connectable="0">
                    <mxGeometry x="0.5699" y="-6" relative="1" as="geometry">
                        <mxPoint x="-18" y="-21" as="offset"/>
                    </mxGeometry>
                </mxCell>
                <mxCell id="Be76M1x_A2nLHFn4Trk8-5" style="edgeStyle=orthogonalEdgeStyle;rounded=0;orthogonalLoop=1;jettySize=auto;html=1;fontSize=15;startArrow=none;startFill=0;strokeWidth=3;entryX=0;entryY=0.5;entryDx=0;entryDy=0;entryPerimeter=0;exitX=0.5;exitY=1;exitDx=0;exitDy=0;exitPerimeter=0;" parent="w6tPkV__amYRiSDFf9xx-1" source="Be76M1x_A2nLHFn4Trk8-3" target="ErXvT_Iq7-1203h138Nt-78" edge="1">
                    <mxGeometry relative="1" as="geometry">
                        <Array as="points"/>
                    </mxGeometry>
                </mxCell>
                <mxCell id="Be76M1x_A2nLHFn4Trk8-7" value="No" style="edgeLabel;html=1;align=center;verticalAlign=middle;resizable=0;points=[];fontSize=15;" parent="Be76M1x_A2nLHFn4Trk8-5" vertex="1" connectable="0">
                    <mxGeometry x="-0.645" y="3" relative="1" as="geometry">
                        <mxPoint x="-22" y="-12" as="offset"/>
                    </mxGeometry>
                </mxCell>
                <mxCell id="Be76M1x_A2nLHFn4Trk8-22" style="edgeStyle=orthogonalEdgeStyle;rounded=0;orthogonalLoop=1;jettySize=auto;html=1;entryX=1;entryY=0.5;entryDx=0;entryDy=0;entryPerimeter=0;fontSize=15;startArrow=none;startFill=0;strokeWidth=3;exitX=0.5;exitY=1;exitDx=0;exitDy=0;" parent="w6tPkV__amYRiSDFf9xx-1" source="Be76M1x_A2nLHFn4Trk8-8" target="ErXvT_Iq7-1203h138Nt-78" edge="1">
                    <mxGeometry relative="1" as="geometry">
                        <Array as="points">
                            <mxPoint x="790" y="665"/>
                        </Array>
                    </mxGeometry>
                </mxCell>
                <mxCell id="Be76M1x_A2nLHFn4Trk8-10" value="" style="group" parent="w6tPkV__amYRiSDFf9xx-1" vertex="1" connectable="0">
                    <mxGeometry x="205" y="365" width="143" height="265" as="geometry"/>
                </mxCell>
                <mxCell id="ErXvT_Iq7-1203h138Nt-66" value="Use interrupt command" style="rounded=1;whiteSpace=wrap;html=1;absoluteArcSize=1;arcSize=14;strokeWidth=2;fontSize=15;verticalAlign=middle;" parent="Be76M1x_A2nLHFn4Trk8-10" vertex="1">
                    <mxGeometry x="22.5" width="98" height="50" as="geometry"/>
                </mxCell>
                <mxCell id="ErXvT_Iq7-1203h138Nt-69" value="Use current command in sequence" style="rounded=1;whiteSpace=wrap;html=1;absoluteArcSize=1;arcSize=14;strokeWidth=2;fontSize=15;verticalAlign=middle;" parent="Be76M1x_A2nLHFn4Trk8-10" vertex="1">
                    <mxGeometry x="12.5" y="195" width="118" height="70" as="geometry"/>
                </mxCell>
                <mxCell id="ErXvT_Iq7-1203h138Nt-72" value="Call command's periodic function" style="rounded=1;whiteSpace=wrap;html=1;absoluteArcSize=1;arcSize=14;strokeWidth=2;fontSize=15;verticalAlign=middle;" parent="Be76M1x_A2nLHFn4Trk8-10" vertex="1">
                    <mxGeometry y="105" width="143" height="45" as="geometry"/>
                </mxCell>
                <mxCell id="ErXvT_Iq7-1203h138Nt-73" style="edgeStyle=orthogonalEdgeStyle;rounded=0;orthogonalLoop=1;jettySize=auto;html=1;fontSize=15;startArrow=none;startFill=0;strokeWidth=3;" parent="Be76M1x_A2nLHFn4Trk8-10" source="ErXvT_Iq7-1203h138Nt-69" target="ErXvT_Iq7-1203h138Nt-72" edge="1">
                    <mxGeometry relative="1" as="geometry"/>
                </mxCell>
                <mxCell id="ErXvT_Iq7-1203h138Nt-74" style="edgeStyle=orthogonalEdgeStyle;rounded=0;orthogonalLoop=1;jettySize=auto;html=1;fontSize=15;startArrow=none;startFill=0;strokeWidth=3;" parent="Be76M1x_A2nLHFn4Trk8-10" source="ErXvT_Iq7-1203h138Nt-66" target="ErXvT_Iq7-1203h138Nt-72" edge="1">
                    <mxGeometry relative="1" as="geometry"/>
                </mxCell>
                <mxCell id="Be76M1x_A2nLHFn4Trk8-11" value="" style="group" parent="w6tPkV__amYRiSDFf9xx-1" vertex="1" connectable="0">
                    <mxGeometry x="80" y="340" width="100" height="305" as="geometry"/>
                </mxCell>
                <mxCell id="ErXvT_Iq7-1203h138Nt-65" value="Is there an interrupt?" style="strokeWidth=2;html=1;shape=mxgraph.flowchart.decision;whiteSpace=wrap;fontSize=15;verticalAlign=middle;" parent="Be76M1x_A2nLHFn4Trk8-11" vertex="1">
                    <mxGeometry y="50" width="100" height="100" as="geometry"/>
                </mxCell>
                <mxCell id="Be76M1x_A2nLHFn4Trk8-3" value="Is there a command to run" style="strokeWidth=2;html=1;shape=mxgraph.flowchart.decision;whiteSpace=wrap;fontSize=15;verticalAlign=middle;" parent="Be76M1x_A2nLHFn4Trk8-11" vertex="1">
                    <mxGeometry y="205" width="100" height="100" as="geometry"/>
                </mxCell>
                <mxCell id="ErXvT_Iq7-1203h138Nt-70" style="edgeStyle=orthogonalEdgeStyle;rounded=0;orthogonalLoop=1;jettySize=auto;html=1;fontSize=15;startArrow=none;startFill=0;strokeWidth=3;entryX=0.5;entryY=0;entryDx=0;entryDy=0;entryPerimeter=0;" parent="Be76M1x_A2nLHFn4Trk8-11" source="ErXvT_Iq7-1203h138Nt-65" target="Be76M1x_A2nLHFn4Trk8-3" edge="1">
                    <mxGeometry relative="1" as="geometry">
                        <mxPoint x="50" y="470" as="targetPoint"/>
                    </mxGeometry>
                </mxCell>
                <mxCell id="ErXvT_Iq7-1203h138Nt-71" value="No" style="edgeLabel;html=1;align=center;verticalAlign=middle;resizable=0;points=[];fontSize=15;" parent="ErXvT_Iq7-1203h138Nt-70" vertex="1" connectable="0">
                    <mxGeometry x="0.6171" y="6" relative="1" as="geometry">
                        <mxPoint x="7" y="-38" as="offset"/>
                    </mxGeometry>
                </mxCell>
                <mxCell id="Be76M1x_A2nLHFn4Trk8-18" style="edgeStyle=orthogonalEdgeStyle;rounded=0;orthogonalLoop=1;jettySize=auto;html=1;entryX=0.5;entryY=0;entryDx=0;entryDy=0;entryPerimeter=0;fontSize=15;startArrow=none;startFill=0;strokeWidth=3;" parent="Be76M1x_A2nLHFn4Trk8-11" source="Be76M1x_A2nLHFn4Trk8-17" target="ErXvT_Iq7-1203h138Nt-65" edge="1">
                    <mxGeometry relative="1" as="geometry"/>
                </mxCell>
                <mxCell id="Be76M1x_A2nLHFn4Trk8-17" value="Start" style="strokeWidth=2;html=1;shape=mxgraph.flowchart.start_1;whiteSpace=wrap;fontSize=15;verticalAlign=middle;" parent="Be76M1x_A2nLHFn4Trk8-11" vertex="1">
                    <mxGeometry x="17.5" width="65" height="30" as="geometry"/>
                </mxCell>
                <mxCell id="Be76M1x_A2nLHFn4Trk8-21" style="edgeStyle=orthogonalEdgeStyle;rounded=0;orthogonalLoop=1;jettySize=auto;html=1;entryX=0.5;entryY=0;entryDx=0;entryDy=0;fontSize=15;startArrow=none;startFill=0;strokeWidth=3;" parent="w6tPkV__amYRiSDFf9xx-1" source="Be76M1x_A2nLHFn4Trk8-19" target="Be76M1x_A2nLHFn4Trk8-8" edge="1">
                    <mxGeometry relative="1" as="geometry"/>
                </mxCell>
                <mxCell id="Be76M1x_A2nLHFn4Trk8-23" value="Yes" style="edgeLabel;html=1;align=center;verticalAlign=middle;resizable=0;points=[];fontSize=15;" parent="Be76M1x_A2nLHFn4Trk8-21" vertex="1" connectable="0">
                    <mxGeometry x="-0.6195" relative="1" as="geometry">
                        <mxPoint x="-14" y="-14" as="offset"/>
                    </mxGeometry>
                </mxCell>
                <mxCell id="Be76M1x_A2nLHFn4Trk8-32" style="edgeStyle=orthogonalEdgeStyle;rounded=0;orthogonalLoop=1;jettySize=auto;html=1;entryX=0.5;entryY=0;entryDx=0;entryDy=0;entryPerimeter=0;fontSize=15;startArrow=none;startFill=0;strokeWidth=3;exitX=0.5;exitY=1;exitDx=0;exitDy=0;exitPerimeter=0;" parent="w6tPkV__amYRiSDFf9xx-1" source="Be76M1x_A2nLHFn4Trk8-19" target="Be76M1x_A2nLHFn4Trk8-24" edge="1">
                    <mxGeometry relative="1" as="geometry">
                        <Array as="points">
                            <mxPoint x="620" y="458"/>
                            <mxPoint x="620" y="458"/>
                        </Array>
                    </mxGeometry>
                </mxCell>
                <mxCell id="Be76M1x_A2nLHFn4Trk8-33" value="No" style="edgeLabel;html=1;align=center;verticalAlign=middle;resizable=0;points=[];fontSize=15;" parent="Be76M1x_A2nLHFn4Trk8-32" vertex="1" connectable="0">
                    <mxGeometry x="-0.2005" y="-1" relative="1" as="geometry">
                        <mxPoint x="17" y="-11" as="offset"/>
                    </mxGeometry>
                </mxCell>
                <mxCell id="Be76M1x_A2nLHFn4Trk8-19" value="Is the &lt;br&gt;command an interrupt?" style="strokeWidth=2;html=1;shape=mxgraph.flowchart.decision;whiteSpace=wrap;fontSize=15;verticalAlign=middle;" parent="w6tPkV__amYRiSDFf9xx-1" vertex="1">
                    <mxGeometry x="560" y="334.75" width="120" height="103.5" as="geometry"/>
                </mxCell>
                <mxCell id="Be76M1x_A2nLHFn4Trk8-20" style="edgeStyle=orthogonalEdgeStyle;rounded=0;orthogonalLoop=1;jettySize=auto;html=1;fontSize=15;startArrow=none;startFill=0;strokeWidth=3;" parent="w6tPkV__amYRiSDFf9xx-1" source="Be76M1x_A2nLHFn4Trk8-0" edge="1">
                    <mxGeometry relative="1" as="geometry">
                        <mxPoint x="560" y="387" as="targetPoint"/>
                    </mxGeometry>
                </mxCell>
                <mxCell id="Be76M1x_A2nLHFn4Trk8-26" style="edgeStyle=orthogonalEdgeStyle;rounded=0;orthogonalLoop=1;jettySize=auto;html=1;entryX=1;entryY=0.5;entryDx=0;entryDy=0;entryPerimeter=0;fontSize=15;startArrow=none;startFill=0;strokeWidth=3;exitX=0.5;exitY=1;exitDx=0;exitDy=0;exitPerimeter=0;" parent="w6tPkV__amYRiSDFf9xx-1" source="Be76M1x_A2nLHFn4Trk8-24" target="ErXvT_Iq7-1203h138Nt-78" edge="1">
                    <mxGeometry relative="1" as="geometry">
                        <Array as="points">
                            <mxPoint x="620" y="665"/>
                        </Array>
                    </mxGeometry>
                </mxCell>
                <mxCell id="Be76M1x_A2nLHFn4Trk8-35" value="No" style="edgeLabel;html=1;align=center;verticalAlign=middle;resizable=0;points=[];fontSize=15;" parent="Be76M1x_A2nLHFn4Trk8-26" vertex="1" connectable="0">
                    <mxGeometry x="-0.6341" y="-2" relative="1" as="geometry">
                        <mxPoint x="16" y="-35" as="offset"/>
                    </mxGeometry>
                </mxCell>
                <mxCell id="Be76M1x_A2nLHFn4Trk8-29" style="edgeStyle=orthogonalEdgeStyle;rounded=0;orthogonalLoop=1;jettySize=auto;html=1;entryX=0.5;entryY=0;entryDx=0;entryDy=0;fontSize=15;startArrow=none;startFill=0;strokeWidth=3;" parent="w6tPkV__amYRiSDFf9xx-1" source="Be76M1x_A2nLHFn4Trk8-24" target="Be76M1x_A2nLHFn4Trk8-27" edge="1">
                    <mxGeometry relative="1" as="geometry">
                        <Array as="points">
                            <mxPoint x="730" y="505"/>
                        </Array>
                    </mxGeometry>
                </mxCell>
                <mxCell id="Be76M1x_A2nLHFn4Trk8-34" value="Yes" style="edgeLabel;html=1;align=center;verticalAlign=middle;resizable=0;points=[];fontSize=15;" parent="Be76M1x_A2nLHFn4Trk8-29" vertex="1" connectable="0">
                    <mxGeometry x="-0.0075" y="1" relative="1" as="geometry">
                        <mxPoint x="-19" y="-12" as="offset"/>
                    </mxGeometry>
                </mxCell>
                <mxCell id="Be76M1x_A2nLHFn4Trk8-24" value="Is there a next command?" style="strokeWidth=2;html=1;shape=mxgraph.flowchart.decision;whiteSpace=wrap;fontSize=15;verticalAlign=middle;" parent="w6tPkV__amYRiSDFf9xx-1" vertex="1">
                    <mxGeometry x="550" y="460" width="140" height="90" as="geometry"/>
                </mxCell>
                <mxCell id="Be76M1x_A2nLHFn4Trk8-31" style="edgeStyle=orthogonalEdgeStyle;rounded=0;orthogonalLoop=1;jettySize=auto;html=1;entryX=1;entryY=0.5;entryDx=0;entryDy=0;entryPerimeter=0;fontSize=15;startArrow=none;startFill=0;strokeWidth=3;" parent="w6tPkV__amYRiSDFf9xx-1" source="Be76M1x_A2nLHFn4Trk8-28" target="ErXvT_Iq7-1203h138Nt-78" edge="1">
                    <mxGeometry relative="1" as="geometry">
                        <Array as="points">
                            <mxPoint x="730" y="665"/>
                        </Array>
                    </mxGeometry>
                </mxCell>
                <mxCell id="Be76M1x_A2nLHFn4Trk8-36" value="" style="group" parent="w6tPkV__amYRiSDFf9xx-1" vertex="1" connectable="0">
                    <mxGeometry x="390" y="365" width="138" height="315" as="geometry"/>
                </mxCell>
                <mxCell id="ErXvT_Iq7-1203h138Nt-75" value="Is the &lt;br&gt;command&lt;br&gt;finished?" style="strokeWidth=2;html=1;shape=mxgraph.flowchart.decision;whiteSpace=wrap;fontSize=15;verticalAlign=middle;" parent="Be76M1x_A2nLHFn4Trk8-36" vertex="1">
                    <mxGeometry y="75" width="138" height="105" as="geometry"/>
                </mxCell>
                <mxCell id="ErXvT_Iq7-1203h138Nt-78" value="Return" style="strokeWidth=2;html=1;shape=mxgraph.flowchart.terminator;whiteSpace=wrap;fontSize=15;verticalAlign=middle;" parent="Be76M1x_A2nLHFn4Trk8-36" vertex="1">
                    <mxGeometry x="40" y="285" width="58" height="30" as="geometry"/>
                </mxCell>
                <mxCell id="Be76M1x_A2nLHFn4Trk8-0" value="Call command's end function" style="rounded=1;whiteSpace=wrap;html=1;absoluteArcSize=1;arcSize=14;strokeWidth=2;fontSize=15;verticalAlign=middle;" parent="Be76M1x_A2nLHFn4Trk8-36" vertex="1">
                    <mxGeometry x="5" width="128" height="43" as="geometry"/>
                </mxCell>
                <mxCell id="ErXvT_Iq7-1203h138Nt-79" style="edgeStyle=orthogonalEdgeStyle;rounded=0;orthogonalLoop=1;jettySize=auto;html=1;entryX=0.5;entryY=0;entryDx=0;entryDy=0;entryPerimeter=0;fontSize=15;startArrow=none;startFill=0;strokeWidth=3;" parent="Be76M1x_A2nLHFn4Trk8-36" source="ErXvT_Iq7-1203h138Nt-75" target="ErXvT_Iq7-1203h138Nt-78" edge="1">
                    <mxGeometry x="390" y="365" as="geometry"/>
                </mxCell>
                <mxCell id="ErXvT_Iq7-1203h138Nt-80" value="No" style="edgeLabel;html=1;align=center;verticalAlign=middle;resizable=0;points=[];fontSize=15;" parent="ErXvT_Iq7-1203h138Nt-79" vertex="1" connectable="0">
                    <mxGeometry x="0.265" y="6" relative="1" as="geometry">
                        <mxPoint x="9" y="-13" as="offset"/>
                    </mxGeometry>
                </mxCell>
                <mxCell id="Be76M1x_A2nLHFn4Trk8-1" style="edgeStyle=orthogonalEdgeStyle;rounded=0;orthogonalLoop=1;jettySize=auto;html=1;entryX=0.5;entryY=1;entryDx=0;entryDy=0;fontSize=15;startArrow=none;startFill=0;strokeWidth=3;" parent="Be76M1x_A2nLHFn4Trk8-36" source="ErXvT_Iq7-1203h138Nt-75" target="Be76M1x_A2nLHFn4Trk8-0" edge="1">
                    <mxGeometry x="390" y="365" as="geometry"/>
                </mxCell>
                <mxCell id="Be76M1x_A2nLHFn4Trk8-2" value="Yes" style="edgeLabel;html=1;align=center;verticalAlign=middle;resizable=0;points=[];fontSize=15;" parent="Be76M1x_A2nLHFn4Trk8-1" vertex="1" connectable="0">
                    <mxGeometry x="0.8072" y="1" relative="1" as="geometry">
                        <mxPoint x="16" y="17" as="offset"/>
                    </mxGeometry>
                </mxCell>
                <mxCell id="Be76M1x_A2nLHFn4Trk8-38" value="" style="group" parent="w6tPkV__amYRiSDFf9xx-1" vertex="1" connectable="0">
                    <mxGeometry x="680" y="420" width="160" height="230" as="geometry"/>
                </mxCell>
                <mxCell id="Be76M1x_A2nLHFn4Trk8-8" value="Clear interrupt" style="rounded=1;whiteSpace=wrap;html=1;absoluteArcSize=1;arcSize=14;strokeWidth=2;fontSize=15;verticalAlign=middle;" parent="Be76M1x_A2nLHFn4Trk8-38" vertex="1">
                    <mxGeometry x="60" width="100" height="36.5" as="geometry"/>
                </mxCell>
                <mxCell id="Be76M1x_A2nLHFn4Trk8-27" value="Update current command" style="rounded=1;whiteSpace=wrap;html=1;absoluteArcSize=1;arcSize=14;strokeWidth=2;fontSize=15;verticalAlign=middle;" parent="Be76M1x_A2nLHFn4Trk8-38" vertex="1">
                    <mxGeometry y="110" width="100" height="55" as="geometry"/>
                </mxCell>
                <mxCell id="Be76M1x_A2nLHFn4Trk8-28" value="Initialize command" style="rounded=1;whiteSpace=wrap;html=1;absoluteArcSize=1;arcSize=14;strokeWidth=2;fontSize=15;verticalAlign=middle;" parent="Be76M1x_A2nLHFn4Trk8-38" vertex="1">
                    <mxGeometry y="190" width="100" height="40" as="geometry"/>
                </mxCell>
                <mxCell id="Be76M1x_A2nLHFn4Trk8-30" style="edgeStyle=orthogonalEdgeStyle;rounded=0;orthogonalLoop=1;jettySize=auto;html=1;exitX=0.5;exitY=1;exitDx=0;exitDy=0;entryX=0.5;entryY=0;entryDx=0;entryDy=0;fontSize=15;startArrow=none;startFill=0;strokeWidth=3;" parent="Be76M1x_A2nLHFn4Trk8-38" source="Be76M1x_A2nLHFn4Trk8-27" target="Be76M1x_A2nLHFn4Trk8-28" edge="1">
                    <mxGeometry relative="1" as="geometry"/>
                </mxCell>
                <mxCell id="-pR6QpM6mF2EAPTyCIYj-0" value="" style="group" parent="w6tPkV__amYRiSDFf9xx-1" vertex="1" connectable="0">
                    <mxGeometry x="185" y="90" width="480" height="160" as="geometry"/>
                </mxCell>
                <mxCell id="ErXvT_Iq7-1203h138Nt-48" value="" style="group" parent="-pR6QpM6mF2EAPTyCIYj-0" vertex="1" connectable="0">
                    <mxGeometry width="480" height="160" as="geometry"/>
                </mxCell>
                <mxCell id="ErXvT_Iq7-1203h138Nt-1" value="Command Lifecycle" style="whiteSpace=wrap;html=1;verticalAlign=top;fontSize=15;fontStyle=1;" parent="ErXvT_Iq7-1203h138Nt-48" vertex="1">
                    <mxGeometry width="480" height="160" as="geometry"/>
                </mxCell>
                <mxCell id="ZOcN9y3nHtW8We8ogZqi-0" value="init()" style="rounded=1;whiteSpace=wrap;html=1;absoluteArcSize=1;arcSize=14;strokeWidth=2;fontSize=15;verticalAlign=middle;" parent="ErXvT_Iq7-1203h138Nt-48" vertex="1">
                    <mxGeometry x="20" y="65.88235294117646" width="80" height="28.235294117647058" as="geometry"/>
                </mxCell>
                <mxCell id="ZOcN9y3nHtW8We8ogZqi-1" value="periodic()" style="rounded=1;whiteSpace=wrap;html=1;absoluteArcSize=1;arcSize=14;strokeWidth=2;fontSize=15;verticalAlign=middle;" parent="ErXvT_Iq7-1203h138Nt-48" vertex="1">
                    <mxGeometry x="140" y="65.88235294117646" width="80" height="28.235294117647058" as="geometry"/>
                </mxCell>
                <mxCell id="ErXvT_Iq7-1203h138Nt-18" style="edgeStyle=orthogonalEdgeStyle;rounded=0;orthogonalLoop=1;jettySize=auto;html=1;entryX=0;entryY=0.5;entryDx=0;entryDy=0;fontSize=15;startArrow=none;startFill=0;strokeWidth=3;" parent="ErXvT_Iq7-1203h138Nt-48" source="ZOcN9y3nHtW8We8ogZqi-0" target="ZOcN9y3nHtW8We8ogZqi-1" edge="1">
                    <mxGeometry as="geometry"/>
                </mxCell>
                <mxCell id="ZOcN9y3nHtW8We8ogZqi-2" value="end()" style="rounded=1;whiteSpace=wrap;html=1;absoluteArcSize=1;arcSize=14;strokeWidth=2;fontSize=15;verticalAlign=middle;" parent="ErXvT_Iq7-1203h138Nt-48" vertex="1">
                    <mxGeometry x="380" y="65.88235294117646" width="80" height="28.235294117647058" as="geometry"/>
                </mxCell>
                <mxCell id="ErXvT_Iq7-1203h138Nt-20" style="edgeStyle=orthogonalEdgeStyle;rounded=0;orthogonalLoop=1;jettySize=auto;html=1;entryX=0;entryY=0.5;entryDx=0;entryDy=0;fontSize=15;startArrow=none;startFill=0;strokeWidth=3;" parent="ErXvT_Iq7-1203h138Nt-48" source="ZOcN9y3nHtW8We8ogZqi-4" target="ZOcN9y3nHtW8We8ogZqi-2" edge="1">
                    <mxGeometry as="geometry"/>
                </mxCell>
                <mxCell id="ErXvT_Iq7-1203h138Nt-22" value="True" style="edgeLabel;html=1;align=center;verticalAlign=middle;resizable=0;points=[];fontSize=15;" parent="ErXvT_Iq7-1203h138Nt-20" vertex="1" connectable="0">
                    <mxGeometry x="0.64" y="-6" relative="1" as="geometry">
                        <mxPoint x="-15" y="-26" as="offset"/>
                    </mxGeometry>
                </mxCell>
                <mxCell id="ErXvT_Iq7-1203h138Nt-21" style="edgeStyle=orthogonalEdgeStyle;rounded=0;orthogonalLoop=1;jettySize=auto;html=1;entryX=0.5;entryY=1;entryDx=0;entryDy=0;fontSize=15;startArrow=none;startFill=0;strokeWidth=3;" parent="ErXvT_Iq7-1203h138Nt-48" source="ZOcN9y3nHtW8We8ogZqi-4" target="ZOcN9y3nHtW8We8ogZqi-1" edge="1">
                    <mxGeometry as="geometry">
                        <Array as="points">
                            <mxPoint x="300" y="145.88235294117646"/>
                            <mxPoint x="180" y="145.88235294117646"/>
                        </Array>
                    </mxGeometry>
                </mxCell>
                <mxCell id="ErXvT_Iq7-1203h138Nt-23" value="False" style="edgeLabel;html=1;align=center;verticalAlign=middle;resizable=0;points=[];fontSize=15;labelBackgroundColor=#ffffff;" parent="ErXvT_Iq7-1203h138Nt-21" vertex="1" connectable="0">
                    <mxGeometry x="-0.292" y="-2" relative="1" as="geometry">
                        <mxPoint as="offset"/>
                    </mxGeometry>
                </mxCell>
                <mxCell id="ZOcN9y3nHtW8We8ogZqi-4" value="isFinished()" style="strokeWidth=2;html=1;shape=mxgraph.flowchart.decision;whiteSpace=wrap;fontSize=15;verticalAlign=middle;" parent="ErXvT_Iq7-1203h138Nt-48" vertex="1">
                    <mxGeometry x="250" y="32.94117647058823" width="100" height="94.11764705882352" as="geometry"/>
                </mxCell>
                <mxCell id="ErXvT_Iq7-1203h138Nt-19" style="edgeStyle=orthogonalEdgeStyle;rounded=0;orthogonalLoop=1;jettySize=auto;html=1;entryX=0;entryY=0.5;entryDx=0;entryDy=0;entryPerimeter=0;fontSize=15;startArrow=none;startFill=0;strokeWidth=3;" parent="ErXvT_Iq7-1203h138Nt-48" source="ZOcN9y3nHtW8We8ogZqi-1" target="ZOcN9y3nHtW8We8ogZqi-4" edge="1">
                    <mxGeometry as="geometry"/>
                </mxCell>
            </root>
        </mxGraphModel>
    </diagram>
    <diagram id="ixn7KywxGUsIZA1dagDA" name="Page-2">
        <mxGraphModel dx="1204" dy="751" grid="1" gridSize="10" guides="1" tooltips="1" connect="1" arrows="1" fold="1" page="1" pageScale="1" pageWidth="850" pageHeight="1100" math="0" shadow="0">
            <root>
                <mxCell id="_TcNSmds4as3DMTrvP_K-0"/>
                <mxCell id="_TcNSmds4as3DMTrvP_K-1" parent="_TcNSmds4as3DMTrvP_K-0"/>
                <mxCell id="_TcNSmds4as3DMTrvP_K-2" value="" style="group" parent="_TcNSmds4as3DMTrvP_K-1" vertex="1" connectable="0">
                    <mxGeometry x="150" y="80" width="550" height="530" as="geometry"/>
                </mxCell>
                <mxCell id="_TcNSmds4as3DMTrvP_K-3" value="init()" style="rounded=0;whiteSpace=wrap;html=1;verticalAlign=top;fontSize=15;fontStyle=1" parent="_TcNSmds4as3DMTrvP_K-2" vertex="1">
                    <mxGeometry x="210" y="50" width="320" height="100" as="geometry"/>
                </mxCell>
                <mxCell id="_TcNSmds4as3DMTrvP_K-4" value="periodic()" style="rounded=0;whiteSpace=wrap;html=1;verticalAlign=top;fontSize=15;fontStyle=1" parent="_TcNSmds4as3DMTrvP_K-2" vertex="1">
                    <mxGeometry x="10" y="168.5" width="520" height="223" as="geometry"/>
                </mxCell>
                <mxCell id="_TcNSmds4as3DMTrvP_K-5" value="isFinished()" style="rounded=0;whiteSpace=wrap;html=1;verticalAlign=top;fontSize=15;fontStyle=1" parent="_TcNSmds4as3DMTrvP_K-2" vertex="1">
                    <mxGeometry x="30" y="410" width="240" height="120" as="geometry"/>
                </mxCell>
                <mxCell id="_TcNSmds4as3DMTrvP_K-6" value="end()" style="rounded=0;whiteSpace=wrap;html=1;verticalAlign=top;fontSize=15;fontStyle=1" parent="_TcNSmds4as3DMTrvP_K-2" vertex="1">
                    <mxGeometry x="350" y="410" width="180" height="120" as="geometry"/>
                </mxCell>
                <mxCell id="_TcNSmds4as3DMTrvP_K-7" style="edgeStyle=orthogonalEdgeStyle;shape=flexArrow;rounded=0;orthogonalLoop=1;jettySize=auto;html=1;entryX=0;entryY=0.5;entryDx=0;entryDy=0;fontSize=15;startArrow=none;startFill=0;strokeWidth=3;" parent="_TcNSmds4as3DMTrvP_K-2" source="_TcNSmds4as3DMTrvP_K-5" target="_TcNSmds4as3DMTrvP_K-6" edge="1">
                    <mxGeometry relative="1" as="geometry"/>
                </mxCell>
                <mxCell id="_TcNSmds4as3DMTrvP_K-8" value="True" style="edgeLabel;html=1;align=center;verticalAlign=middle;resizable=0;points=[];fontSize=15;labelBackgroundColor=#ffffff;" parent="_TcNSmds4as3DMTrvP_K-7" vertex="1" connectable="0">
                    <mxGeometry x="-0.2664" y="-4" relative="1" as="geometry">
                        <mxPoint as="offset"/>
                    </mxGeometry>
                </mxCell>
                <mxCell id="_TcNSmds4as3DMTrvP_K-9" style="edgeStyle=orthogonalEdgeStyle;shape=flexArrow;rounded=0;orthogonalLoop=1;jettySize=auto;html=1;entryX=0;entryY=0.5;entryDx=0;entryDy=0;fontSize=15;startArrow=none;startFill=0;strokeWidth=3;" parent="_TcNSmds4as3DMTrvP_K-2" source="_TcNSmds4as3DMTrvP_K-12" target="_TcNSmds4as3DMTrvP_K-3" edge="1">
                    <mxGeometry relative="1" as="geometry">
                        <Array as="points"/>
                    </mxGeometry>
                </mxCell>
                <mxCell id="_TcNSmds4as3DMTrvP_K-10" style="edgeStyle=orthogonalEdgeStyle;shape=flexArrow;rounded=0;orthogonalLoop=1;jettySize=auto;html=1;fontSize=15;startArrow=none;startFill=0;strokeWidth=3;" parent="_TcNSmds4as3DMTrvP_K-2" source="_TcNSmds4as3DMTrvP_K-12" target="_TcNSmds4as3DMTrvP_K-5" edge="1">
                    <mxGeometry relative="1" as="geometry">
                        <Array as="points">
                            <mxPoint y="90"/>
                            <mxPoint y="470"/>
                        </Array>
                    </mxGeometry>
                </mxCell>
                <mxCell id="_TcNSmds4as3DMTrvP_K-11" style="edgeStyle=orthogonalEdgeStyle;shape=flexArrow;rounded=0;orthogonalLoop=1;jettySize=auto;html=1;fontSize=15;startArrow=none;startFill=0;strokeWidth=3;" parent="_TcNSmds4as3DMTrvP_K-2" source="_TcNSmds4as3DMTrvP_K-12" target="_TcNSmds4as3DMTrvP_K-4" edge="1">
                    <mxGeometry relative="1" as="geometry">
                        <Array as="points">
                            <mxPoint x="60" y="150"/>
                            <mxPoint x="60" y="150"/>
                        </Array>
                    </mxGeometry>
                </mxCell>
                <mxCell id="_TcNSmds4as3DMTrvP_K-12" value="Scheduler" style="strokeWidth=2;html=1;shape=mxgraph.flowchart.start_2;whiteSpace=wrap;fontSize=15;verticalAlign=middle;" parent="_TcNSmds4as3DMTrvP_K-2" vertex="1">
                    <mxGeometry x="20" y="51" width="80" height="80" as="geometry"/>
                </mxCell>
                <mxCell id="_TcNSmds4as3DMTrvP_K-13" value="&lt;h1&gt;DriveToPositionCommand&lt;/h1&gt;" style="text;html=1;strokeColor=none;fillColor=none;spacing=5;spacingTop=-20;whiteSpace=wrap;overflow=hidden;rounded=0;fontSize=15;verticalAlign=middle;" parent="_TcNSmds4as3DMTrvP_K-2" vertex="1">
                    <mxGeometry x="60" width="390" height="40" as="geometry"/>
                </mxCell>
                <mxCell id="_TcNSmds4as3DMTrvP_K-14" style="edgeStyle=orthogonalEdgeStyle;rounded=0;orthogonalLoop=1;jettySize=auto;html=1;fontSize=15;startArrow=none;startFill=0;strokeWidth=3;entryX=0;entryY=0.5;entryDx=0;entryDy=0;entryPerimeter=0;" parent="_TcNSmds4as3DMTrvP_K-2" target="_TcNSmds4as3DMTrvP_K-32" edge="1">
                    <mxGeometry relative="1" as="geometry">
                        <mxPoint x="60" y="168" as="sourcePoint"/>
                        <mxPoint x="110" y="188" as="targetPoint"/>
                        <Array as="points">
                            <mxPoint x="60" y="228"/>
                        </Array>
                    </mxGeometry>
                </mxCell>
                <mxCell id="_TcNSmds4as3DMTrvP_K-15" style="edgeStyle=orthogonalEdgeStyle;rounded=0;orthogonalLoop=1;jettySize=auto;html=1;exitX=0;exitY=0.5;exitDx=0;exitDy=0;entryX=0;entryY=0.5;entryDx=0;entryDy=0;fontSize=15;startArrow=none;startFill=0;strokeWidth=3;" parent="_TcNSmds4as3DMTrvP_K-2" source="_TcNSmds4as3DMTrvP_K-3" target="_TcNSmds4as3DMTrvP_K-38" edge="1">
                    <mxGeometry relative="1" as="geometry">
                        <mxPoint x="230" y="100" as="targetPoint"/>
                        <Array as="points"/>
                    </mxGeometry>
                </mxCell>
                <mxCell id="_TcNSmds4as3DMTrvP_K-16" value="Stop driving" style="rounded=1;whiteSpace=wrap;html=1;absoluteArcSize=1;arcSize=14;strokeWidth=2;fontSize=15;verticalAlign=middle;" parent="_TcNSmds4as3DMTrvP_K-2" vertex="1">
                    <mxGeometry x="382.5" y="450" width="115" height="40" as="geometry"/>
                </mxCell>
                <mxCell id="_TcNSmds4as3DMTrvP_K-17" style="edgeStyle=orthogonalEdgeStyle;rounded=0;orthogonalLoop=1;jettySize=auto;html=1;exitX=1;exitY=0.5;exitDx=0;exitDy=0;exitPerimeter=0;entryX=1;entryY=0.5;entryDx=0;entryDy=0;fontSize=15;startArrow=none;startFill=0;strokeWidth=3;" parent="_TcNSmds4as3DMTrvP_K-2" source="_TcNSmds4as3DMTrvP_K-18" target="_TcNSmds4as3DMTrvP_K-5" edge="1">
                    <mxGeometry relative="1" as="geometry">
                        <Array as="points">
                            <mxPoint x="240" y="470"/>
                            <mxPoint x="240" y="470"/>
                        </Array>
                    </mxGeometry>
                </mxCell>
                <mxCell id="_TcNSmds4as3DMTrvP_K-18" value="Position at target" style="strokeWidth=2;html=1;shape=mxgraph.flowchart.decision;whiteSpace=wrap;fontSize=15;verticalAlign=middle;" parent="_TcNSmds4as3DMTrvP_K-2" vertex="1">
                    <mxGeometry x="75" y="435" width="150" height="70" as="geometry"/>
                </mxCell>
                <mxCell id="_TcNSmds4as3DMTrvP_K-19" style="edgeStyle=orthogonalEdgeStyle;rounded=0;orthogonalLoop=1;jettySize=auto;html=1;exitX=0;exitY=0.5;exitDx=0;exitDy=0;entryX=0;entryY=0.5;entryDx=0;entryDy=0;entryPerimeter=0;fontSize=15;startArrow=none;startFill=0;strokeWidth=3;" parent="_TcNSmds4as3DMTrvP_K-2" source="_TcNSmds4as3DMTrvP_K-5" target="_TcNSmds4as3DMTrvP_K-18" edge="1">
                    <mxGeometry relative="1" as="geometry">
                        <Array as="points">
                            <mxPoint x="60" y="470"/>
                            <mxPoint x="60" y="470"/>
                        </Array>
                    </mxGeometry>
                </mxCell>
                <mxCell id="_TcNSmds4as3DMTrvP_K-20" value="Calculate heading error to arrive at target" style="rounded=1;whiteSpace=wrap;html=1;absoluteArcSize=1;arcSize=14;strokeWidth=2;fontSize=15;verticalAlign=middle;" parent="_TcNSmds4as3DMTrvP_K-2" vertex="1">
                    <mxGeometry x="20" y="285" width="160" height="50" as="geometry"/>
                </mxCell>
                <mxCell id="_TcNSmds4as3DMTrvP_K-21" value="Error more than 90&lt;span style=&quot;color: rgb(77 , 81 , 86) ; font-family: &amp;#34;arial&amp;#34; , sans-serif ; font-size: 14px ; text-align: left ; background-color: rgb(255 , 255 , 255)&quot;&gt;°&lt;/span&gt;" style="strokeWidth=2;html=1;shape=mxgraph.flowchart.decision;whiteSpace=wrap;fontSize=15;verticalAlign=middle;" parent="_TcNSmds4as3DMTrvP_K-2" vertex="1">
                    <mxGeometry x="230" y="260" width="100" height="100" as="geometry"/>
                </mxCell>
                <mxCell id="_TcNSmds4as3DMTrvP_K-22" style="edgeStyle=orthogonalEdgeStyle;rounded=0;orthogonalLoop=1;jettySize=auto;html=1;entryX=0;entryY=0.5;entryDx=0;entryDy=0;entryPerimeter=0;fontSize=15;startArrow=none;startFill=0;strokeWidth=3;" parent="_TcNSmds4as3DMTrvP_K-2" source="_TcNSmds4as3DMTrvP_K-20" target="_TcNSmds4as3DMTrvP_K-21" edge="1">
                    <mxGeometry relative="1" as="geometry"/>
                </mxCell>
                <mxCell id="_TcNSmds4as3DMTrvP_K-23" value="Compute PID output" style="rounded=1;whiteSpace=wrap;html=1;absoluteArcSize=1;arcSize=14;strokeWidth=2;fontSize=15;verticalAlign=middle;" parent="_TcNSmds4as3DMTrvP_K-2" vertex="1">
                    <mxGeometry x="130" y="340" width="100" height="40" as="geometry"/>
                </mxCell>
                <mxCell id="_TcNSmds4as3DMTrvP_K-24" style="edgeStyle=orthogonalEdgeStyle;rounded=0;orthogonalLoop=1;jettySize=auto;html=1;entryX=0;entryY=0.5;entryDx=0;entryDy=0;fontSize=15;startArrow=none;startFill=0;strokeWidth=3;" parent="_TcNSmds4as3DMTrvP_K-2" source="_TcNSmds4as3DMTrvP_K-20" target="_TcNSmds4as3DMTrvP_K-23" edge="1">
                    <mxGeometry relative="1" as="geometry"/>
                </mxCell>
                <mxCell id="_TcNSmds4as3DMTrvP_K-25" value="Drive forward with PID output correction" style="rounded=1;whiteSpace=wrap;html=1;absoluteArcSize=1;arcSize=14;strokeWidth=2;fontSize=15;verticalAlign=middle;" parent="_TcNSmds4as3DMTrvP_K-2" vertex="1">
                    <mxGeometry x="350" y="330" width="170" height="50" as="geometry"/>
                </mxCell>
                <mxCell id="_TcNSmds4as3DMTrvP_K-26" style="edgeStyle=orthogonalEdgeStyle;rounded=0;orthogonalLoop=1;jettySize=auto;html=1;entryX=0.5;entryY=0;entryDx=0;entryDy=0;fontSize=15;startArrow=none;startFill=0;strokeWidth=3;exitX=1;exitY=0.5;exitDx=0;exitDy=0;exitPerimeter=0;" parent="_TcNSmds4as3DMTrvP_K-2" source="_TcNSmds4as3DMTrvP_K-21" target="_TcNSmds4as3DMTrvP_K-25" edge="1">
                    <mxGeometry relative="1" as="geometry">
                        <Array as="points">
                            <mxPoint x="360" y="310"/>
                            <mxPoint x="360" y="290"/>
                            <mxPoint x="435" y="290"/>
                        </Array>
                    </mxGeometry>
                </mxCell>
                <mxCell id="_TcNSmds4as3DMTrvP_K-27" value="False" style="edgeLabel;html=1;align=center;verticalAlign=middle;resizable=0;points=[];fontSize=15;" parent="_TcNSmds4as3DMTrvP_K-26" vertex="1" connectable="0">
                    <mxGeometry x="0.0464" y="1" relative="1" as="geometry">
                        <mxPoint x="14" y="12" as="offset"/>
                    </mxGeometry>
                </mxCell>
                <mxCell id="_TcNSmds4as3DMTrvP_K-28" value="Pivot with PID output&amp;nbsp;" style="rounded=1;whiteSpace=wrap;html=1;absoluteArcSize=1;arcSize=14;strokeWidth=2;fontSize=15;verticalAlign=middle;" parent="_TcNSmds4as3DMTrvP_K-2" vertex="1">
                    <mxGeometry x="350" y="203.25" width="170" height="50" as="geometry"/>
                </mxCell>
                <mxCell id="_TcNSmds4as3DMTrvP_K-29" style="edgeStyle=orthogonalEdgeStyle;rounded=0;orthogonalLoop=1;jettySize=auto;html=1;entryX=0.5;entryY=1;entryDx=0;entryDy=0;fontSize=15;startArrow=none;startFill=0;strokeWidth=3;exitX=1;exitY=0.5;exitDx=0;exitDy=0;exitPerimeter=0;" parent="_TcNSmds4as3DMTrvP_K-2" source="_TcNSmds4as3DMTrvP_K-21" target="_TcNSmds4as3DMTrvP_K-28" edge="1">
                    <mxGeometry relative="1" as="geometry">
                        <Array as="points">
                            <mxPoint x="360" y="310"/>
                            <mxPoint x="360" y="290"/>
                            <mxPoint x="435" y="290"/>
                        </Array>
                    </mxGeometry>
                </mxCell>
                <mxCell id="_TcNSmds4as3DMTrvP_K-30" value="True" style="edgeLabel;html=1;align=center;verticalAlign=middle;resizable=0;points=[];fontSize=15;" parent="_TcNSmds4as3DMTrvP_K-29" vertex="1" connectable="0">
                    <mxGeometry x="-0.7376" y="1" relative="1" as="geometry">
                        <mxPoint x="62" y="-32" as="offset"/>
                    </mxGeometry>
                </mxCell>
                <mxCell id="_TcNSmds4as3DMTrvP_K-31" style="edgeStyle=orthogonalEdgeStyle;rounded=0;orthogonalLoop=1;jettySize=auto;html=1;fontSize=15;startArrow=none;startFill=0;strokeWidth=3;exitX=0;exitY=0.5;exitDx=0;exitDy=0;exitPerimeter=0;entryX=0.5;entryY=0;entryDx=0;entryDy=0;" parent="_TcNSmds4as3DMTrvP_K-2" source="_TcNSmds4as3DMTrvP_K-32" target="_TcNSmds4as3DMTrvP_K-20" edge="1">
                    <mxGeometry relative="1" as="geometry">
                        <Array as="points">
                            <mxPoint x="60" y="228"/>
                            <mxPoint x="60" y="260"/>
                            <mxPoint x="100" y="260"/>
                        </Array>
                    </mxGeometry>
                </mxCell>
                <mxCell id="_TcNSmds4as3DMTrvP_K-32" value="millis() divisible by 500&amp;nbsp;" style="strokeWidth=2;html=1;shape=mxgraph.flowchart.decision;whiteSpace=wrap;fontSize=15;verticalAlign=middle;" parent="_TcNSmds4as3DMTrvP_K-2" vertex="1">
                    <mxGeometry x="90" y="190" width="100" height="76.5" as="geometry"/>
                </mxCell>
                <mxCell id="_TcNSmds4as3DMTrvP_K-33" value="Save position to path" style="rounded=1;whiteSpace=wrap;html=1;absoluteArcSize=1;arcSize=14;strokeWidth=2;fontSize=15;verticalAlign=middle;" parent="_TcNSmds4as3DMTrvP_K-2" vertex="1">
                    <mxGeometry x="230" y="203.25" width="100" height="50" as="geometry"/>
                </mxCell>
                <mxCell id="_TcNSmds4as3DMTrvP_K-34" style="edgeStyle=orthogonalEdgeStyle;rounded=0;orthogonalLoop=1;jettySize=auto;html=1;entryX=0;entryY=0.5;entryDx=0;entryDy=0;fontSize=15;startArrow=none;startFill=0;strokeWidth=3;" parent="_TcNSmds4as3DMTrvP_K-2" source="_TcNSmds4as3DMTrvP_K-32" target="_TcNSmds4as3DMTrvP_K-33" edge="1">
                    <mxGeometry relative="1" as="geometry"/>
                </mxCell>
                <mxCell id="_TcNSmds4as3DMTrvP_K-35" value="" style="edgeStyle=orthogonalEdgeStyle;rounded=0;orthogonalLoop=1;jettySize=auto;html=1;fontSize=15;startArrow=none;startFill=0;strokeWidth=3;" parent="_TcNSmds4as3DMTrvP_K-2" source="_TcNSmds4as3DMTrvP_K-32" target="_TcNSmds4as3DMTrvP_K-33" edge="1">
                    <mxGeometry relative="1" as="geometry"/>
                </mxCell>
                <mxCell id="_TcNSmds4as3DMTrvP_K-36" value="True" style="edgeLabel;html=1;align=center;verticalAlign=middle;resizable=0;points=[];fontSize=15;" parent="_TcNSmds4as3DMTrvP_K-35" vertex="1" connectable="0">
                    <mxGeometry x="0.2515" y="1" relative="1" as="geometry">
                        <mxPoint x="-15" y="-17" as="offset"/>
                    </mxGeometry>
                </mxCell>
                <mxCell id="_TcNSmds4as3DMTrvP_K-37" value="Save position to path" style="rounded=1;whiteSpace=wrap;html=1;absoluteArcSize=1;arcSize=14;strokeWidth=2;fontSize=15;verticalAlign=middle;" parent="_TcNSmds4as3DMTrvP_K-2" vertex="1">
                    <mxGeometry x="400" y="80" width="100" height="40" as="geometry"/>
                </mxCell>
                <mxCell id="_TcNSmds4as3DMTrvP_K-38" value="Configure PID controller" style="rounded=1;whiteSpace=wrap;html=1;absoluteArcSize=1;arcSize=14;strokeWidth=2;fontSize=15;verticalAlign=middle;" parent="_TcNSmds4as3DMTrvP_K-2" vertex="1">
                    <mxGeometry x="240" y="80" width="130" height="40" as="geometry"/>
                </mxCell>
                <mxCell id="_TcNSmds4as3DMTrvP_K-39" style="edgeStyle=orthogonalEdgeStyle;rounded=0;orthogonalLoop=1;jettySize=auto;html=1;entryX=0;entryY=0.5;entryDx=0;entryDy=0;fontSize=15;startArrow=none;startFill=0;strokeWidth=3;" parent="_TcNSmds4as3DMTrvP_K-2" source="_TcNSmds4as3DMTrvP_K-38" target="_TcNSmds4as3DMTrvP_K-37" edge="1">
                    <mxGeometry relative="1" as="geometry"/>
                </mxCell>
                <mxCell id="_TcNSmds4as3DMTrvP_K-40" style="edgeStyle=orthogonalEdgeStyle;rounded=0;orthogonalLoop=1;jettySize=auto;html=1;entryX=0;entryY=0.5;entryDx=0;entryDy=0;fontSize=15;startArrow=none;startFill=0;strokeWidth=3;" parent="_TcNSmds4as3DMTrvP_K-2" target="_TcNSmds4as3DMTrvP_K-16" edge="1">
                    <mxGeometry relative="1" as="geometry">
                        <mxPoint x="350" y="470" as="sourcePoint"/>
                    </mxGeometry>
                </mxCell>
            </root>
        </mxGraphModel>
    </diagram>
    <diagram id="KMTj6gc-Da4x1Q6KFTIG" name="Page-3">
        <mxGraphModel dx="354" dy="751" grid="1" gridSize="10" guides="1" tooltips="1" connect="1" arrows="1" fold="1" page="1" pageScale="1" pageWidth="850" pageHeight="1100" math="0" shadow="0">
            <root>
                <mxCell id="Mi-_MOqnqjriI6CawnkP-0"/>
                <mxCell id="Mi-_MOqnqjriI6CawnkP-1" parent="Mi-_MOqnqjriI6CawnkP-0"/>
                <mxCell id="UwtUKSTIgQXjyuTgBQ2P-0" value="" style="group" parent="Mi-_MOqnqjriI6CawnkP-1" vertex="1" connectable="0">
                    <mxGeometry x="1050" y="210" width="530" height="530" as="geometry"/>
                </mxCell>
                <mxCell id="Mi-_MOqnqjriI6CawnkP-2" value="" style="group" parent="UwtUKSTIgQXjyuTgBQ2P-0" vertex="1" connectable="0">
                    <mxGeometry width="530" height="530" as="geometry"/>
                </mxCell>
                <mxCell id="Mi-_MOqnqjriI6CawnkP-3" value="init()" style="rounded=0;whiteSpace=wrap;html=1;verticalAlign=top;fontSize=15;fontStyle=1" parent="Mi-_MOqnqjriI6CawnkP-2" vertex="1">
                    <mxGeometry x="210" y="50" width="320" height="100" as="geometry"/>
                </mxCell>
                <mxCell id="Mi-_MOqnqjriI6CawnkP-4" value="periodic()" style="rounded=0;whiteSpace=wrap;html=1;verticalAlign=top;fontSize=15;fontStyle=1" parent="Mi-_MOqnqjriI6CawnkP-2" vertex="1">
                    <mxGeometry x="10" y="168.5" width="520" height="223" as="geometry"/>
                </mxCell>
                <mxCell id="Mi-_MOqnqjriI6CawnkP-5" value="isFinished()" style="rounded=0;whiteSpace=wrap;html=1;verticalAlign=top;fontSize=15;fontStyle=1" parent="Mi-_MOqnqjriI6CawnkP-2" vertex="1">
                    <mxGeometry x="30" y="410" width="240" height="120" as="geometry"/>
                </mxCell>
                <mxCell id="Mi-_MOqnqjriI6CawnkP-6" value="end()" style="rounded=0;whiteSpace=wrap;html=1;verticalAlign=top;fontSize=15;fontStyle=1" parent="Mi-_MOqnqjriI6CawnkP-2" vertex="1">
                    <mxGeometry x="350" y="410" width="180" height="120" as="geometry"/>
                </mxCell>
                <mxCell id="Mi-_MOqnqjriI6CawnkP-7" style="edgeStyle=orthogonalEdgeStyle;shape=flexArrow;rounded=0;orthogonalLoop=1;jettySize=auto;html=1;entryX=0;entryY=0.5;entryDx=0;entryDy=0;fontSize=15;startArrow=none;startFill=0;strokeWidth=3;" parent="Mi-_MOqnqjriI6CawnkP-2" source="Mi-_MOqnqjriI6CawnkP-5" target="Mi-_MOqnqjriI6CawnkP-6" edge="1">
                    <mxGeometry as="geometry"/>
                </mxCell>
                <mxCell id="Mi-_MOqnqjriI6CawnkP-8" value="True" style="edgeLabel;html=1;align=center;verticalAlign=middle;resizable=0;points=[];fontSize=15;labelBackgroundColor=#ffffff;" parent="Mi-_MOqnqjriI6CawnkP-7" vertex="1" connectable="0">
                    <mxGeometry x="-0.2664" y="-4" relative="1" as="geometry">
                        <mxPoint as="offset"/>
                    </mxGeometry>
                </mxCell>
                <mxCell id="Mi-_MOqnqjriI6CawnkP-9" style="edgeStyle=orthogonalEdgeStyle;shape=flexArrow;rounded=0;orthogonalLoop=1;jettySize=auto;html=1;entryX=0;entryY=0.5;entryDx=0;entryDy=0;fontSize=15;startArrow=none;startFill=0;strokeWidth=3;" parent="Mi-_MOqnqjriI6CawnkP-2" source="Mi-_MOqnqjriI6CawnkP-12" target="Mi-_MOqnqjriI6CawnkP-3" edge="1">
                    <mxGeometry as="geometry">
                        <Array as="points"/>
                    </mxGeometry>
                </mxCell>
                <mxCell id="Mi-_MOqnqjriI6CawnkP-10" style="edgeStyle=orthogonalEdgeStyle;shape=flexArrow;rounded=0;orthogonalLoop=1;jettySize=auto;html=1;fontSize=15;startArrow=none;startFill=0;strokeWidth=3;" parent="Mi-_MOqnqjriI6CawnkP-2" source="Mi-_MOqnqjriI6CawnkP-12" target="Mi-_MOqnqjriI6CawnkP-5" edge="1">
                    <mxGeometry as="geometry">
                        <Array as="points">
                            <mxPoint y="90"/>
                            <mxPoint y="470"/>
                        </Array>
                    </mxGeometry>
                </mxCell>
                <mxCell id="Mi-_MOqnqjriI6CawnkP-11" style="edgeStyle=orthogonalEdgeStyle;shape=flexArrow;rounded=0;orthogonalLoop=1;jettySize=auto;html=1;fontSize=15;startArrow=none;startFill=0;strokeWidth=3;" parent="Mi-_MOqnqjriI6CawnkP-2" source="Mi-_MOqnqjriI6CawnkP-12" target="Mi-_MOqnqjriI6CawnkP-4" edge="1">
                    <mxGeometry as="geometry">
                        <Array as="points">
                            <mxPoint x="60" y="150"/>
                            <mxPoint x="60" y="150"/>
                        </Array>
                    </mxGeometry>
                </mxCell>
                <mxCell id="Mi-_MOqnqjriI6CawnkP-12" value="Scheduler" style="strokeWidth=2;html=1;shape=mxgraph.flowchart.start_2;whiteSpace=wrap;fontSize=15;verticalAlign=middle;" parent="Mi-_MOqnqjriI6CawnkP-2" vertex="1">
                    <mxGeometry x="20" y="52" width="80" height="80" as="geometry"/>
                </mxCell>
                <mxCell id="Mi-_MOqnqjriI6CawnkP-13" value="&lt;h1&gt;AvoidanceCommand&lt;/h1&gt;" style="text;html=1;strokeColor=none;fillColor=none;spacing=5;spacingTop=-20;whiteSpace=wrap;overflow=hidden;rounded=0;fontSize=15;verticalAlign=middle;" parent="Mi-_MOqnqjriI6CawnkP-2" vertex="1">
                    <mxGeometry x="115" width="310" height="40" as="geometry"/>
                </mxCell>
                <mxCell id="Mi-_MOqnqjriI6CawnkP-14" value="Remove last position from path" style="rounded=1;whiteSpace=wrap;html=1;absoluteArcSize=1;arcSize=14;strokeWidth=2;fontSize=15;verticalAlign=middle;" parent="Mi-_MOqnqjriI6CawnkP-2" vertex="1">
                    <mxGeometry x="270" y="80" width="200" height="40" as="geometry"/>
                </mxCell>
                <mxCell id="Mi-_MOqnqjriI6CawnkP-15" style="edgeStyle=orthogonalEdgeStyle;rounded=0;orthogonalLoop=1;jettySize=auto;html=1;exitX=0;exitY=0.5;exitDx=0;exitDy=0;entryX=0;entryY=0.5;entryDx=0;entryDy=0;fontSize=15;startArrow=none;startFill=0;strokeWidth=3;" parent="Mi-_MOqnqjriI6CawnkP-2" source="Mi-_MOqnqjriI6CawnkP-3" target="Mi-_MOqnqjriI6CawnkP-14" edge="1">
                    <mxGeometry as="geometry">
                        <Array as="points">
                            <mxPoint x="230" y="100"/>
                            <mxPoint x="230" y="100"/>
                        </Array>
                    </mxGeometry>
                </mxCell>
                <mxCell id="Mi-_MOqnqjriI6CawnkP-16" value="Stop driving" style="rounded=1;whiteSpace=wrap;html=1;absoluteArcSize=1;arcSize=14;strokeWidth=2;fontSize=15;verticalAlign=middle;" parent="Mi-_MOqnqjriI6CawnkP-2" vertex="1">
                    <mxGeometry x="382.51" y="450" width="115" height="40" as="geometry"/>
                </mxCell>
                <mxCell id="Mi-_MOqnqjriI6CawnkP-17" style="edgeStyle=orthogonalEdgeStyle;rounded=0;orthogonalLoop=1;jettySize=auto;html=1;exitX=1;exitY=0.5;exitDx=0;exitDy=0;exitPerimeter=0;entryX=1;entryY=0.5;entryDx=0;entryDy=0;fontSize=15;startArrow=none;startFill=0;strokeWidth=3;" parent="Mi-_MOqnqjriI6CawnkP-2" target="Mi-_MOqnqjriI6CawnkP-5" edge="1">
                    <mxGeometry as="geometry">
                        <Array as="points">
                            <mxPoint x="240" y="470"/>
                            <mxPoint x="240" y="470"/>
                        </Array>
                        <mxPoint x="225" y="470" as="sourcePoint"/>
                    </mxGeometry>
                </mxCell>
                <mxCell id="Mi-_MOqnqjriI6CawnkP-18" style="edgeStyle=orthogonalEdgeStyle;rounded=0;orthogonalLoop=1;jettySize=auto;html=1;exitX=0;exitY=0.5;exitDx=0;exitDy=0;entryX=0;entryY=0.5;entryDx=0;entryDy=0;entryPerimeter=0;fontSize=15;startArrow=none;startFill=0;strokeWidth=3;" parent="Mi-_MOqnqjriI6CawnkP-2" source="Mi-_MOqnqjriI6CawnkP-5" edge="1">
                    <mxGeometry as="geometry">
                        <Array as="points">
                            <mxPoint x="60" y="470"/>
                            <mxPoint x="60" y="470"/>
                        </Array>
                        <mxPoint x="75" y="470" as="targetPoint"/>
                    </mxGeometry>
                </mxCell>
                <mxCell id="Mi-_MOqnqjriI6CawnkP-19" style="edgeStyle=orthogonalEdgeStyle;rounded=0;orthogonalLoop=1;jettySize=auto;html=1;fontSize=15;startArrow=none;startFill=0;strokeWidth=3;exitX=0;exitY=0.5;exitDx=0;exitDy=0;entryX=0;entryY=0.5;entryDx=0;entryDy=0;" parent="Mi-_MOqnqjriI6CawnkP-2" source="Mi-_MOqnqjriI6CawnkP-6" target="Mi-_MOqnqjriI6CawnkP-16" edge="1">
                    <mxGeometry as="geometry"/>
                </mxCell>
                <mxCell id="Mi-_MOqnqjriI6CawnkP-20" style="edgeStyle=orthogonalEdgeStyle;rounded=0;orthogonalLoop=1;jettySize=auto;html=1;fontSize=15;startArrow=none;startFill=0;strokeWidth=3;entryX=0.5;entryY=0;entryDx=0;entryDy=0;" parent="Mi-_MOqnqjriI6CawnkP-2" target="Mi-_MOqnqjriI6CawnkP-21" edge="1">
                    <mxGeometry as="geometry">
                        <mxPoint x="60" y="168" as="sourcePoint"/>
                        <mxPoint x="140" y="169" as="targetPoint"/>
                        <Array as="points">
                            <mxPoint x="60" y="170"/>
                            <mxPoint x="60" y="170"/>
                        </Array>
                    </mxGeometry>
                </mxCell>
                <mxCell id="Mi-_MOqnqjriI6CawnkP-21" value="Left IR" style="rhombus;whiteSpace=wrap;html=1;fontSize=15;verticalAlign=middle;" parent="Mi-_MOqnqjriI6CawnkP-2" vertex="1">
                    <mxGeometry x="21.079729729729706" y="198.5" width="77.83783783783784" height="80" as="geometry"/>
                </mxCell>
                <mxCell id="Mi-_MOqnqjriI6CawnkP-22" value="Ultrasonic&lt;br&gt;distance&lt;br&gt;(cm)" style="rhombus;whiteSpace=wrap;html=1;fontSize=15;verticalAlign=middle;" parent="Mi-_MOqnqjriI6CawnkP-2" vertex="1">
                    <mxGeometry x="153.24756756756756" y="178.5" width="116.75675675675676" height="120" as="geometry"/>
                </mxCell>
                <mxCell id="Mi-_MOqnqjriI6CawnkP-23" style="edgeStyle=orthogonalEdgeStyle;rounded=0;orthogonalLoop=1;jettySize=auto;html=1;entryX=0;entryY=0.5;entryDx=0;entryDy=0;fontSize=15;strokeWidth=3;exitX=1;exitY=0.5;exitDx=0;exitDy=0;" parent="Mi-_MOqnqjriI6CawnkP-2" source="Mi-_MOqnqjriI6CawnkP-21" target="Mi-_MOqnqjriI6CawnkP-22" edge="1">
                    <mxGeometry x="-849.73" y="412.5" as="geometry">
                        <Array as="points">
                            <mxPoint x="120" y="239"/>
                            <mxPoint x="153" y="239"/>
                        </Array>
                    </mxGeometry>
                </mxCell>
                <mxCell id="Mi-_MOqnqjriI6CawnkP-24" value="HIGH" style="edgeLabel;html=1;align=center;verticalAlign=middle;resizable=0;points=[];fontSize=15;" parent="Mi-_MOqnqjriI6CawnkP-23" vertex="1" connectable="0">
                    <mxGeometry x="-0.5405" y="-1" relative="1" as="geometry">
                        <mxPoint x="6" y="-13" as="offset"/>
                    </mxGeometry>
                </mxCell>
                <mxCell id="Mi-_MOqnqjriI6CawnkP-25" value="Right IR" style="rhombus;whiteSpace=wrap;html=1;fontSize=15;verticalAlign=middle;" parent="Mi-_MOqnqjriI6CawnkP-2" vertex="1">
                    <mxGeometry x="420.0043243243242" y="270" width="77.83783783783784" height="80" as="geometry"/>
                </mxCell>
                <mxCell id="Mi-_MOqnqjriI6CawnkP-26" style="edgeStyle=orthogonalEdgeStyle;rounded=0;orthogonalLoop=1;jettySize=auto;html=1;fontSize=15;strokeWidth=3;exitX=1;exitY=0.5;exitDx=0;exitDy=0;" parent="Mi-_MOqnqjriI6CawnkP-2" source="Mi-_MOqnqjriI6CawnkP-22" target="Mi-_MOqnqjriI6CawnkP-25" edge="1">
                    <mxGeometry x="-849.73" y="412.5" as="geometry">
                        <Array as="points">
                            <mxPoint x="310" y="238"/>
                            <mxPoint x="310" y="250"/>
                            <mxPoint x="459" y="250"/>
                        </Array>
                    </mxGeometry>
                </mxCell>
                <mxCell id="Mi-_MOqnqjriI6CawnkP-27" value="&amp;gt; 20" style="edgeLabel;html=1;align=center;verticalAlign=middle;resizable=0;points=[];fontSize=15;" parent="Mi-_MOqnqjriI6CawnkP-26" vertex="1" connectable="0">
                    <mxGeometry x="0.0428" y="2" relative="1" as="geometry">
                        <mxPoint x="-43" y="-10" as="offset"/>
                    </mxGeometry>
                </mxCell>
                <mxCell id="Mi-_MOqnqjriI6CawnkP-28" value="Turn left" style="rounded=1;whiteSpace=wrap;html=1;absoluteArcSize=1;arcSize=14;strokeWidth=2;fontSize=15;verticalAlign=middle;" parent="Mi-_MOqnqjriI6CawnkP-2" vertex="1">
                    <mxGeometry x="21.08000000000004" y="350" width="77.84" height="30" as="geometry"/>
                </mxCell>
                <mxCell id="Mi-_MOqnqjriI6CawnkP-29" style="edgeStyle=orthogonalEdgeStyle;rounded=0;orthogonalLoop=1;jettySize=auto;html=1;fontSize=15;strokeWidth=3;entryX=0.5;entryY=0;entryDx=0;entryDy=0;" parent="Mi-_MOqnqjriI6CawnkP-2" source="Mi-_MOqnqjriI6CawnkP-21" target="Mi-_MOqnqjriI6CawnkP-28" edge="1">
                    <mxGeometry x="-849.73" y="412.5" as="geometry">
                        <mxPoint x="-801.0813513513514" y="752.5" as="targetPoint"/>
                    </mxGeometry>
                </mxCell>
                <mxCell id="Mi-_MOqnqjriI6CawnkP-30" value="LOW" style="edgeLabel;html=1;align=center;verticalAlign=middle;resizable=0;points=[];fontSize=15;labelBackgroundColor=#ffffff;" parent="Mi-_MOqnqjriI6CawnkP-29" vertex="1" connectable="0">
                    <mxGeometry x="0.1303" relative="1" as="geometry">
                        <mxPoint y="-25" as="offset"/>
                    </mxGeometry>
                </mxCell>
                <mxCell id="Mi-_MOqnqjriI6CawnkP-31" style="edgeStyle=orthogonalEdgeStyle;rounded=0;orthogonalLoop=1;jettySize=auto;html=1;fontSize=15;strokeWidth=3;entryX=0.5;entryY=0;entryDx=0;entryDy=0;" parent="Mi-_MOqnqjriI6CawnkP-2" source="Mi-_MOqnqjriI6CawnkP-25" target="Mi-_MOqnqjriI6CawnkP-28" edge="1">
                    <mxGeometry x="-849.73" y="412.5" as="geometry">
                        <mxPoint x="-801.0813513513514" y="772.5" as="targetPoint"/>
                        <Array as="points">
                            <mxPoint x="60" y="310"/>
                        </Array>
                    </mxGeometry>
                </mxCell>
                <mxCell id="Mi-_MOqnqjriI6CawnkP-32" value="LOW" style="edgeLabel;html=1;align=center;verticalAlign=middle;resizable=0;points=[];fontSize=15;labelBackgroundColor=#ffffff;" parent="Mi-_MOqnqjriI6CawnkP-31" vertex="1" connectable="0">
                    <mxGeometry x="-0.3948" y="-2" relative="1" as="geometry">
                        <mxPoint x="51" y="2" as="offset"/>
                    </mxGeometry>
                </mxCell>
                <mxCell id="Mi-_MOqnqjriI6CawnkP-33" value="Drive at 15cm distance" style="rounded=1;whiteSpace=wrap;html=1;absoluteArcSize=1;arcSize=14;strokeWidth=2;fontSize=15;verticalAlign=middle;" parent="Mi-_MOqnqjriI6CawnkP-2" vertex="1">
                    <mxGeometry x="359.0600000000002" y="203.5" width="161.89" height="30" as="geometry"/>
                </mxCell>
                <mxCell id="Mi-_MOqnqjriI6CawnkP-34" style="edgeStyle=orthogonalEdgeStyle;rounded=0;orthogonalLoop=1;jettySize=auto;html=1;entryX=0;entryY=0.5;entryDx=0;entryDy=0;fontSize=15;strokeWidth=3;" parent="Mi-_MOqnqjriI6CawnkP-2" target="Mi-_MOqnqjriI6CawnkP-33" edge="1">
                    <mxGeometry x="-849.73" y="412.5" as="geometry">
                        <mxPoint x="270" y="238" as="sourcePoint"/>
                        <Array as="points">
                            <mxPoint x="310" y="238"/>
                            <mxPoint x="310" y="218"/>
                        </Array>
                    </mxGeometry>
                </mxCell>
                <mxCell id="Mi-_MOqnqjriI6CawnkP-35" value="&amp;lt; 20" style="edgeLabel;html=1;align=center;verticalAlign=middle;resizable=0;points=[];fontSize=15;" parent="Mi-_MOqnqjriI6CawnkP-34" vertex="1" connectable="0">
                    <mxGeometry x="-0.2524" y="1" relative="1" as="geometry">
                        <mxPoint x="21" y="-34" as="offset"/>
                    </mxGeometry>
                </mxCell>
                <mxCell id="Mi-_MOqnqjriI6CawnkP-36" value="Do nothing" style="rounded=1;whiteSpace=wrap;html=1;absoluteArcSize=1;arcSize=14;strokeWidth=2;fontSize=15;verticalAlign=middle;" parent="Mi-_MOqnqjriI6CawnkP-2" vertex="1">
                    <mxGeometry x="290.0000000000002" y="350" width="97.3" height="30" as="geometry"/>
                </mxCell>
                <mxCell id="Mi-_MOqnqjriI6CawnkP-37" style="edgeStyle=orthogonalEdgeStyle;rounded=0;orthogonalLoop=1;jettySize=auto;html=1;fontSize=15;strokeWidth=3;entryX=1;entryY=0.5;entryDx=0;entryDy=0;" parent="Mi-_MOqnqjriI6CawnkP-2" source="Mi-_MOqnqjriI6CawnkP-25" target="Mi-_MOqnqjriI6CawnkP-36" edge="1">
                    <mxGeometry x="-849.73" y="412.5" as="geometry">
                        <mxPoint x="-548.1083783783783" y="722.5" as="targetPoint"/>
                        <Array as="points">
                            <mxPoint x="459" y="365"/>
                        </Array>
                    </mxGeometry>
                </mxCell>
                <mxCell id="Mi-_MOqnqjriI6CawnkP-38" value="HIGH" style="edgeLabel;html=1;align=center;verticalAlign=middle;resizable=0;points=[];fontSize=15;labelBackgroundColor=#ffffff;" parent="Mi-_MOqnqjriI6CawnkP-37" vertex="1" connectable="0">
                    <mxGeometry x="-0.0798" y="-1" relative="1" as="geometry">
                        <mxPoint as="offset"/>
                    </mxGeometry>
                </mxCell>
                <mxCell id="Mi-_MOqnqjriI6CawnkP-39" value="No obstacle &lt;br&gt;detected" style="strokeWidth=2;html=1;shape=mxgraph.flowchart.decision;whiteSpace=wrap;fontSize=15;verticalAlign=middle;" parent="Mi-_MOqnqjriI6CawnkP-2" vertex="1">
                    <mxGeometry x="75" y="435" width="150" height="70" as="geometry"/>
                </mxCell>
            </root>
        </mxGraphModel>
    </diagram>
    <diagram id="bXXLiVrLXVM1mFl3-dYw" name="Page-4">
        <mxGraphModel dx="354" dy="1851" grid="1" gridSize="10" guides="1" tooltips="1" connect="1" arrows="1" fold="1" page="1" pageScale="1" pageWidth="850" pageHeight="1100" math="0" shadow="0">
            <root>
                <mxCell id="BIWI8CUSEr1QXwHn5sWs-0"/>
                <mxCell id="BIWI8CUSEr1QXwHn5sWs-1" parent="BIWI8CUSEr1QXwHn5sWs-0"/>
                <mxCell id="BIWI8CUSEr1QXwHn5sWs-2" value="" style="group" parent="BIWI8CUSEr1QXwHn5sWs-1" vertex="1" connectable="0">
                    <mxGeometry x="1190" y="-420" width="360" height="388" as="geometry"/>
                </mxCell>
                <mxCell id="BIWI8CUSEr1QXwHn5sWs-3" value="Avoidance Command" style="rounded=0;whiteSpace=wrap;html=1;verticalAlign=top;fontSize=15;fontStyle=1" parent="BIWI8CUSEr1QXwHn5sWs-2" vertex="1">
                    <mxGeometry width="360" height="388" as="geometry"/>
                </mxCell>
                <mxCell id="BIWI8CUSEr1QXwHn5sWs-4" value="Left IR" style="rhombus;whiteSpace=wrap;html=1;fontSize=15;verticalAlign=middle;" parent="BIWI8CUSEr1QXwHn5sWs-2" vertex="1">
                    <mxGeometry x="9.72972972972974" y="24" width="77.83783783783784" height="80" as="geometry"/>
                </mxCell>
                <mxCell id="BIWI8CUSEr1QXwHn5sWs-5" value="Ultrasonic&lt;br&gt;distance&lt;br&gt;(cm)" style="rhombus;whiteSpace=wrap;html=1;fontSize=15;verticalAlign=middle;" parent="BIWI8CUSEr1QXwHn5sWs-2" vertex="1">
                    <mxGeometry x="87.56756756756761" y="104" width="116.75675675675676" height="120" as="geometry"/>
                </mxCell>
                <mxCell id="BIWI8CUSEr1QXwHn5sWs-6" style="edgeStyle=orthogonalEdgeStyle;rounded=0;orthogonalLoop=1;jettySize=auto;html=1;entryX=0.5;entryY=0;entryDx=0;entryDy=0;fontSize=15;strokeWidth=3;" parent="BIWI8CUSEr1QXwHn5sWs-2" source="BIWI8CUSEr1QXwHn5sWs-4" target="BIWI8CUSEr1QXwHn5sWs-5" edge="1">
                    <mxGeometry y="-6" as="geometry">
                        <Array as="points">
                            <mxPoint x="145.94594594594594" y="64"/>
                        </Array>
                    </mxGeometry>
                </mxCell>
                <mxCell id="BIWI8CUSEr1QXwHn5sWs-7" value="HIGH" style="edgeLabel;html=1;align=center;verticalAlign=middle;resizable=0;points=[];fontSize=15;" parent="BIWI8CUSEr1QXwHn5sWs-6" vertex="1" connectable="0">
                    <mxGeometry x="-0.5405" y="-1" relative="1" as="geometry">
                        <mxPoint as="offset"/>
                    </mxGeometry>
                </mxCell>
                <mxCell id="BIWI8CUSEr1QXwHn5sWs-8" value="Right IR" style="rhombus;whiteSpace=wrap;html=1;fontSize=15;verticalAlign=middle;" parent="BIWI8CUSEr1QXwHn5sWs-2" vertex="1">
                    <mxGeometry x="204.32432432432438" y="204" width="77.83783783783784" height="80" as="geometry"/>
                </mxCell>
                <mxCell id="BIWI8CUSEr1QXwHn5sWs-9" style="edgeStyle=orthogonalEdgeStyle;rounded=0;orthogonalLoop=1;jettySize=auto;html=1;fontSize=15;strokeWidth=3;" parent="BIWI8CUSEr1QXwHn5sWs-2" source="BIWI8CUSEr1QXwHn5sWs-5" target="BIWI8CUSEr1QXwHn5sWs-8" edge="1">
                    <mxGeometry y="-6" as="geometry">
                        <Array as="points">
                            <mxPoint x="243.24324324324323" y="164"/>
                        </Array>
                    </mxGeometry>
                </mxCell>
                <mxCell id="BIWI8CUSEr1QXwHn5sWs-10" value="&amp;gt; 20" style="edgeLabel;html=1;align=center;verticalAlign=middle;resizable=0;points=[];fontSize=15;" parent="BIWI8CUSEr1QXwHn5sWs-9" vertex="1" connectable="0">
                    <mxGeometry x="0.0428" y="2" relative="1" as="geometry">
                        <mxPoint as="offset"/>
                    </mxGeometry>
                </mxCell>
                <mxCell id="BIWI8CUSEr1QXwHn5sWs-11" value="Turn Left" style="rounded=1;whiteSpace=wrap;html=1;absoluteArcSize=1;arcSize=14;strokeWidth=2;fontSize=15;verticalAlign=middle;" parent="BIWI8CUSEr1QXwHn5sWs-2" vertex="1">
                    <mxGeometry x="9.730000000000018" y="344" width="77.84" height="30" as="geometry"/>
                </mxCell>
                <mxCell id="BIWI8CUSEr1QXwHn5sWs-12" style="edgeStyle=orthogonalEdgeStyle;rounded=0;orthogonalLoop=1;jettySize=auto;html=1;fontSize=15;strokeWidth=3;entryX=0.5;entryY=0;entryDx=0;entryDy=0;" parent="BIWI8CUSEr1QXwHn5sWs-2" source="BIWI8CUSEr1QXwHn5sWs-4" target="BIWI8CUSEr1QXwHn5sWs-11" edge="1">
                    <mxGeometry y="-6" as="geometry">
                        <mxPoint x="48.648648648648646" y="334" as="targetPoint"/>
                    </mxGeometry>
                </mxCell>
                <mxCell id="BIWI8CUSEr1QXwHn5sWs-13" value="LOW" style="edgeLabel;html=1;align=center;verticalAlign=middle;resizable=0;points=[];fontSize=15;" parent="BIWI8CUSEr1QXwHn5sWs-12" vertex="1" connectable="0">
                    <mxGeometry x="0.1303" relative="1" as="geometry">
                        <mxPoint as="offset"/>
                    </mxGeometry>
                </mxCell>
                <mxCell id="BIWI8CUSEr1QXwHn5sWs-14" style="edgeStyle=orthogonalEdgeStyle;rounded=0;orthogonalLoop=1;jettySize=auto;html=1;fontSize=15;strokeWidth=3;entryX=0.5;entryY=0;entryDx=0;entryDy=0;" parent="BIWI8CUSEr1QXwHn5sWs-2" source="BIWI8CUSEr1QXwHn5sWs-8" target="BIWI8CUSEr1QXwHn5sWs-11" edge="1">
                    <mxGeometry y="-6" as="geometry">
                        <mxPoint x="48.648648648648646" y="354" as="targetPoint"/>
                        <Array as="points">
                            <mxPoint x="243.24324324324323" y="324"/>
                            <mxPoint x="48.648648648648646" y="324"/>
                        </Array>
                    </mxGeometry>
                </mxCell>
                <mxCell id="BIWI8CUSEr1QXwHn5sWs-15" value="LOW" style="edgeLabel;html=1;align=center;verticalAlign=middle;resizable=0;points=[];fontSize=15;" parent="BIWI8CUSEr1QXwHn5sWs-14" vertex="1" connectable="0">
                    <mxGeometry x="-0.3948" y="-2" relative="1" as="geometry">
                        <mxPoint as="offset"/>
                    </mxGeometry>
                </mxCell>
                <mxCell id="BIWI8CUSEr1QXwHn5sWs-16" value="Maintain 15cm distance" style="rounded=1;whiteSpace=wrap;html=1;absoluteArcSize=1;arcSize=14;strokeWidth=2;fontSize=15;verticalAlign=middle;" parent="BIWI8CUSEr1QXwHn5sWs-2" vertex="1">
                    <mxGeometry x="68.11000000000001" y="284" width="161.89" height="30" as="geometry"/>
                </mxCell>
                <mxCell id="BIWI8CUSEr1QXwHn5sWs-17" style="edgeStyle=orthogonalEdgeStyle;rounded=0;orthogonalLoop=1;jettySize=auto;html=1;entryX=0.5;entryY=0;entryDx=0;entryDy=0;fontSize=15;strokeWidth=3;" parent="BIWI8CUSEr1QXwHn5sWs-2" source="BIWI8CUSEr1QXwHn5sWs-5" target="BIWI8CUSEr1QXwHn5sWs-16" edge="1">
                    <mxGeometry y="-6" as="geometry"/>
                </mxCell>
                <mxCell id="BIWI8CUSEr1QXwHn5sWs-18" value="&amp;lt; 20" style="edgeLabel;html=1;align=center;verticalAlign=middle;resizable=0;points=[];fontSize=15;" parent="BIWI8CUSEr1QXwHn5sWs-17" vertex="1" connectable="0">
                    <mxGeometry x="-0.2524" y="1" relative="1" as="geometry">
                        <mxPoint as="offset"/>
                    </mxGeometry>
                </mxCell>
                <mxCell id="BIWI8CUSEr1QXwHn5sWs-19" value="No Obstacle" style="rounded=1;whiteSpace=wrap;html=1;absoluteArcSize=1;arcSize=14;strokeWidth=2;fontSize=15;verticalAlign=middle;" parent="BIWI8CUSEr1QXwHn5sWs-2" vertex="1">
                    <mxGeometry x="252.97000000000003" y="344" width="97.3" height="30" as="geometry"/>
                </mxCell>
                <mxCell id="BIWI8CUSEr1QXwHn5sWs-20" style="edgeStyle=orthogonalEdgeStyle;rounded=0;orthogonalLoop=1;jettySize=auto;html=1;fontSize=15;strokeWidth=3;entryX=0.5;entryY=0;entryDx=0;entryDy=0;" parent="BIWI8CUSEr1QXwHn5sWs-2" source="BIWI8CUSEr1QXwHn5sWs-8" target="BIWI8CUSEr1QXwHn5sWs-19" edge="1">
                    <mxGeometry y="-6" as="geometry">
                        <mxPoint x="301.62162162162167" y="304" as="targetPoint"/>
                        <Array as="points">
                            <mxPoint x="302" y="244"/>
                        </Array>
                    </mxGeometry>
                </mxCell>
                <mxCell id="BIWI8CUSEr1QXwHn5sWs-21" value="HIGH" style="edgeLabel;html=1;align=center;verticalAlign=middle;resizable=0;points=[];fontSize=15;" parent="BIWI8CUSEr1QXwHn5sWs-20" vertex="1" connectable="0">
                    <mxGeometry x="-0.0798" y="-1" relative="1" as="geometry">
                        <mxPoint as="offset"/>
                    </mxGeometry>
                </mxCell>
            </root>
        </mxGraphModel>
    </diagram>
</mxfile>